<svg width="139" height="137" viewBox="0 0 139 137" fill="none" xmlns="http://www.w3.org/2000/svg">
<path d="M4.00037 23.7H15.4004L15.3004 69.7H3.90039L4.00037 23.7ZM12.5004 67.6V51.2H6.80042V67.6H12.5004Z" fill="white"/>
<path d="M36.2997 45.9L21.2997 23.8H34.5996L43.3997 37.6L51.7997 23.9H64.9996L50.0996 46.8L65.6996 69.9H52.5996L42.9996 55.4L33.6996 69.9H20.5996L36.2997 45.9ZM54.4996 67.7H60.9996L48.0996 48.7L44.5996 53.4L54.4996 67.7ZM60.4996 26H53.5996L45.0996 39.5L48.6996 44.5L60.4996 26Z" fill="white"/>
<path d="M70.8013 23.9H87.1012C100.901 23.9 111.501 33.9 111.501 46.9C111.501 59.2 101.901 70 87.0012 69.9H70.7012L70.8013 23.9ZM79.2012 67.8L79.3013 26.1H73.6012L73.5012 67.8H79.2012ZM86.7012 59.7C94.0012 59.7 99.6012 54.7 99.7012 46.9C99.7012 39.8 94.8013 34.1 86.8013 34.1H82.2012L82.1012 59.6L86.7012 59.7Z" fill="white"/>
<path d="M123.5 113.6V107.7C123.5 104.8 125.7 103.1 128.1 103.1C130.8 103.1 132.7 105.1 132.7 107.7V110.2H137.8V113.6H123.5ZM129.6 108.1C129.6 107.2 128.8 106.7 127.9 106.7C127.1 106.7 126.4 107.2 126.4 108.1V110.2H129.6V108.1Z" fill="white"/>
<path d="M123.5 101V95.1C123.5 92.1 125.4 90.1 128.1 90.1C130.6 90.1 132 91.3 132.5 93.4L137.8 89.6V93.9L132.5 97.5H137.8V101H123.5ZM129.7 94.7C129.7 93.9 128.9 93.4 128.1 93.4C127.3 93.4 126.5 94 126.5 94.8V97.5H129.7V94.7Z" fill="white"/>
<path d="M123 80.6C123 76.2 126.4 73 130.6 73C134.9 73 138.2 76.1 138.2 80.6C138.2 85.1 134.8 88.2 130.6 88.2C126.3 88.2 123 85.1 123 80.6ZM134.9 80.6C134.9 78.1 133 76.5 130.6 76.5C128.2 76.5 126.3 78.1 126.3 80.6C126.3 83.1 128.2 84.7 130.6 84.7C133 84.7 134.9 83.1 134.9 80.6Z" fill="white"/>
<path d="M133.3 68.7C134.3 68.5 135 68.1 135 67C135 65.9 134.5 65.2 132.8 65.2H123.5V61.8H133.4C136.4 61.8 138.2 64.1 138.2 66.9C138.2 69.8 136.4 72.1 133.4 72.1L133.3 68.7Z" fill="white"/>
<path d="M123.5 59.5V50.2H126.6V56.1H129.2V50.7H132.3V56.1H134.9V50H137.9V59.6H123.5V59.5Z" fill="white"/>
<path d="M123 40.5C123 37.8 124 36 125.6 34.5L127.9 36.9C126.9 37.9 126.3 39.2 126.3 40.6C126.3 43.1 128.2 44.7 130.6 44.7C133 44.7 134.9 43.1 134.9 40.6C134.9 39.2 134.3 37.9 133.3 36.9L135.6 34.6C137.1 36 138.2 38 138.2 40.6C138.2 45.1 134.8 48.2 130.6 48.2C126.3 48.1 123 44.9 123 40.5Z" fill="white"/>
<path d="M126.6 30.3V33.4H123.5V23.6H126.6V26.8H137.8V30.3H126.6Z" fill="white"/>
<path d="M30.5 105.4V114.7H9.5L19.9 95.3L20.3 94.6C20.6 94.1 20.7 93.6 20.7 93.1C20.7 91.8 19.9 91.2 18.4 91.2C17.8 91.2 17.3 91.4 16.9 91.8C16.5 92.2 16.2 92.7 16.2 93.3C16.2 94 16.5 94.6 17.1 95.1L12.9 102.5C11.2 101.4 9.80002 100.1 8.90002 98.4C8.00002 96.7 7.5 94.9 7.5 92.9C7.5 89.8 8.60005 87.2 10.8 84.9C13 82.7 15.7 81.6 18.8 81.6C21.9 81.6 24.6 82.7 26.8 84.9C29 87.1 30.1 89.7 30.1 92.9C30.1 94.7 29.7 96.4 28.9 97.9L25 105.3H30.5V105.4Z" fill="white"/>
<path d="M35.0996 102.2V95.1C35.0996 91 36.0996 87.7 38.1996 85.3C40.2996 82.9 43.0996 81.7 46.6996 81.7C50.2996 81.7 53.0996 82.9 55.1996 85.3C57.2996 87.7 58.2997 90.9 58.2997 95.1V102.2C58.2997 106.3 57.2996 109.6 55.1996 112C53.0996 114.4 50.2996 115.6 46.6996 115.6C43.0996 115.6 40.2996 114.4 38.1996 112C36.0996 109.5 35.0996 106.3 35.0996 102.2ZM44.3997 93.2V104C44.3997 106 45.1996 106.9 46.6996 106.9C48.2996 106.9 48.9996 105.9 48.9996 104V93.2C48.9996 91.2 48.1996 90.3 46.6996 90.3C45.0996 90.3 44.3997 91.3 44.3997 93.2Z" fill="white"/>
<path d="M85.8008 105.4V114.7H64.8008L75.2007 95.3L75.6007 94.6C75.9007 94.1 76.0007 93.6 76.0007 93.1C76.0007 91.8 75.2007 91.2 73.7007 91.2C73.1007 91.2 72.6007 91.4 72.2007 91.8C71.8007 92.2 71.5007 92.7 71.5007 93.3C71.5007 94 71.8008 94.6 72.4008 95.1L68.2007 102.5C66.5007 101.4 65.1007 100.1 64.2007 98.4C63.3007 96.7 62.8008 94.9 62.8008 92.9C62.8008 89.8 63.9007 87.2 66.1007 84.9C68.3007 82.7 71.0007 81.6 74.1007 81.6C77.2007 81.6 79.9007 82.7 82.1007 84.9C84.3007 87.1 85.4008 89.7 85.4008 92.9C85.4008 94.7 85.0007 96.4 84.2007 97.9L80.3008 105.3H85.8008V105.4Z" fill="white"/>
<path d="M106.6 82.6V114.8H97.4004V82.6H106.6Z" fill="white"/>
<path d="M137.902 125.6H0.101562V137H137.902V125.6Z" fill="white"/>
<path d="M137.902 0.900002H0.101562V12.3H137.902V0.900002Z" fill="white"/>
</svg>
