<svg xmlns="http://www.w3.org/2000/svg" viewBox="0 0 529.9 121.04"><defs><style>.cls-1{fill:#f1f2f2;}</style></defs><g id="Layer_2" data-name="Layer 2"><g id="Alien_sign" data-name="Alien sign"><g id="i4BWOm.tif"><path class="cls-1" d="M61.57,39.13c.86.77,1.73,1.53,2.56,2.31A48.62,48.62,0,0,1,77.22,61.15a37.6,37.6,0,0,1,1.89,16.27c-.06.55-.11,1.11-.21,1.65a4.31,4.31,0,0,1-8.55-1c.08-1.72.32-3.44.28-5.15a31.84,31.84,0,0,0-5.06-16.28A46,46,0,0,0,54.39,44.5l-.24-.16-3.44,2.47a110.83,110.83,0,0,1-11.53,7.42,44.2,44.2,0,0,1-13.52,5,24.39,24.39,0,0,1-13.16-1,17.88,17.88,0,0,1-9.4-8.31A25.68,25.68,0,0,1,0,36.55a31.2,31.2,0,0,1,5.5-17A39.56,39.56,0,0,1,28.38,3.13,4.4,4.4,0,0,1,34,6.5a4.37,4.37,0,0,1-3.1,4.92A30.76,30.76,0,0,0,12.44,24.83a22.43,22.43,0,0,0-3.78,13A17.58,17.58,0,0,0,10.34,45,9.88,9.88,0,0,0,18,50.74,20.3,20.3,0,0,0,27.12,50,46.21,46.21,0,0,0,39,44.27c2.35-1.52,4.63-3.14,6.95-4.72l.33-.27c-1.73-.76-3.38-1.53-5.06-2.2a45.16,45.16,0,0,0-9.19-2.58A4.32,4.32,0,0,1,33.45,26,51.86,51.86,0,0,1,47,30.12c2.29,1.05,4.5,2.3,6.73,3.49a.55.55,0,0,0,.67-.09,96.75,96.75,0,0,1,9.53-6,45.64,45.64,0,0,1,13-4.94,29,29,0,0,1,19.48,2.61,25.71,25.71,0,0,1,11.06,11.35,38.88,38.88,0,0,1,3.43,11.07,50.68,50.68,0,0,1,.61,13.13,53.85,53.85,0,0,1-4.61,17.84,56.83,56.83,0,0,1-12,17.24A60.73,60.73,0,0,1,78.3,107.45a46.35,46.35,0,0,1-11.21,3.86,25.83,25.83,0,0,1-12.92-.41,20,20,0,0,1-11.34-9.26,29.74,29.74,0,0,1-3.9-12.41,49.91,49.91,0,0,1,.32-11.06,4.34,4.34,0,1,1,8.58,1.26,36.2,36.2,0,0,0-.06,10.65,19.67,19.67,0,0,0,3,7.89,11.43,11.43,0,0,0,9.58,5.28,26.79,26.79,0,0,0,10.9-2.16A51.57,51.57,0,0,0,89.9,88.62a46.85,46.85,0,0,0,12.37-24.05,42.06,42.06,0,0,0-1.38-21.35A17.43,17.43,0,0,0,90.73,32.11a20.21,20.21,0,0,0-9.17-1.4A30.57,30.57,0,0,0,70.27,34a69.49,69.49,0,0,0-8.4,4.87C61.77,39,61.68,39.05,61.57,39.13Z"/></g><g id="ueMmC2.tif"><path class="cls-1" d="M505.88,48.66c1.74,0,3.58.13,5.43.11q6.55-.08,13.11-.25a5.32,5.32,0,0,1,5.46,4.67,5.1,5.1,0,0,1-4.7,5.75c-3.94.21-7.9.26-11.85.31-2.18,0-4.36-.06-6.53-.09h-.67c-.07,1.34-.11,2.63-.2,3.93A78.78,78.78,0,0,1,501.31,86a48,48,0,0,1-9.14,15.37,39.87,39.87,0,0,1-16.46,10.94,48.66,48.66,0,0,1-19,2.47,42.45,42.45,0,0,1-15.38-3.44,38.36,38.36,0,0,1-19.39-19,46.9,46.9,0,0,1-4.5-16.79,52.69,52.69,0,0,1,.1-9.81,1.86,1.86,0,0,0-.23-1c-2.06-4-4.06-7.94-6.23-11.84a24.94,24.94,0,0,0-7.24-8.35,11.78,11.78,0,0,0-4.9-2.2,7.24,7.24,0,0,0-6.31,2,15.84,15.84,0,0,0-3.83,5.81,48.26,48.26,0,0,0-3.18,12.39A49,49,0,0,0,385.31,73c0,.6.09,1.2.17,1.8A5.24,5.24,0,1,1,375.08,76a63,63,0,0,1,3.1-27.31A29.19,29.19,0,0,1,384.3,37.9a17.8,17.8,0,0,1,14.52-6.07A20.54,20.54,0,0,1,409,35.4,36,36,0,0,1,419.79,47c.69,1.13,1.35,2.3,2,3.39,1-1.69,2-3.45,3.13-5.1A41.36,41.36,0,0,1,438.78,32a21.32,21.32,0,0,1,11.62-3,18.14,18.14,0,0,1,13.05,6,16.12,16.12,0,0,1,3.69,8,38.7,38.7,0,0,1-3,23.66,31.51,31.51,0,0,1-8.25,11.23,21.14,21.14,0,0,1-15.37,5.29A22.67,22.67,0,0,1,429,79.14l-.37-.25-.2,0c.14.59.25,1.15.38,1.71A32.31,32.31,0,0,0,438,96.75a26.43,26.43,0,0,0,12.82,6.71,40.16,40.16,0,0,0,19.87-.52,29.83,29.83,0,0,0,18.12-14.72,50.19,50.19,0,0,0,5.4-15.4,82.9,82.9,0,0,0,1.45-13.24v-.76l-5-.11c-1.34,0-2.68,0-4-.06A5.23,5.23,0,0,1,487,48.2c2.47,0,4.94.06,7.41.1h.83c-.39-2.17-.71-4.28-1.16-6.37a50.07,50.07,0,0,0-6.71-16.75,28,28,0,0,0-7.24-8.09,30.87,30.87,0,0,0-10.89-4.6,69.52,69.52,0,0,0-11.66-1.65c-2.8-.17-5.6-.32-8.39-.3a17.51,17.51,0,0,0-8,1.72,11.66,11.66,0,0,0-1.77,1.19,5.11,5.11,0,0,1-5.44.9A5,5,0,0,1,430.75,10a4.88,4.88,0,0,1,1.66-4.34A21.67,21.67,0,0,1,442.9.73,42.88,42.88,0,0,1,454.49.14c3.21.22,6.42.45,9.62.83a53.66,53.66,0,0,1,17.06,4.64A34.08,34.08,0,0,1,494,16.32,58.62,58.62,0,0,1,504,38.63C504.78,41.9,505.26,45.24,505.88,48.66Zm-48.52,2.09a26.45,26.45,0,0,0-.64-6.32,5.43,5.43,0,0,0-1.55-3,8.32,8.32,0,0,0-7-1.91,14.8,14.8,0,0,0-6.56,3A34.16,34.16,0,0,0,428.7,62.37,1.92,1.92,0,0,0,429,64a22.06,22.06,0,0,0,6.27,6.74,11.51,11.51,0,0,0,8.64,1.82,12.39,12.39,0,0,0,7.24-4.65A27.76,27.76,0,0,0,457.36,50.75Z"/></g><g id="hV3xwc.tif"><path class="cls-1" d="M245.14,26.07c1.05-1.17,2-2.29,3.05-3.38A57.84,57.84,0,0,1,262.1,11.43a30,30,0,0,1,11.17-3.77,14.72,14.72,0,0,1,10.46,2.19,11.46,11.46,0,0,1,5,8.82,17.17,17.17,0,0,1-2.32,9.75,27.72,27.72,0,0,1-10.83,11.17,29.12,29.12,0,0,1-16.86,3.83,28.47,28.47,0,0,1-10.69-2.87l-.25-.11-.18,0c-.75,1.19-1.52,2.37-2.25,3.58a96.41,96.41,0,0,0-11.34,27.87,75.22,75.22,0,0,0-2.06,17,43.72,43.72,0,0,0,.93,10,18.8,18.8,0,0,0,3.71,7.82,9.47,9.47,0,0,0,10.6,3.28,21.05,21.05,0,0,0,8.1-4.52,29,29,0,0,0,6-6.64,6.72,6.72,0,0,0,1.06-3.32,5.29,5.29,0,0,1,5.18-5.11A5.42,5.42,0,0,1,273,96.26a18,18,0,0,1-4.09,10.27,40,40,0,0,1-13.07,11.39A24.45,24.45,0,0,1,243.35,121a19.25,19.25,0,0,1-12.84-5.4,27.92,27.92,0,0,1-7.71-13.55,43.2,43.2,0,0,1-1.26-8.63,76.33,76.33,0,0,1,0-8.82,89.33,89.33,0,0,1,1.95-14A107.47,107.47,0,0,1,238.52,35l.28-.43a1.71,1.71,0,0,0-.11-.14c-4-3.29-8-6.61-12.06-9.86a50.52,50.52,0,0,0-9.44-6.22,18.61,18.61,0,0,0-8.43-2.13A15.77,15.77,0,0,0,202,17.94a5.3,5.3,0,1,1-4.74-9.48,25.63,25.63,0,0,1,20.42-1.34,45.46,45.46,0,0,1,11.35,6c3.82,2.67,7.37,5.69,10.94,8.67C241.68,23.24,243.4,24.64,245.14,26.07Zm9.15,5.62.61.23a18.18,18.18,0,0,0,10.15.53,17.68,17.68,0,0,0,12.52-10,5.73,5.73,0,0,0,.66-2.63A1.37,1.37,0,0,0,277,18.28a6.89,6.89,0,0,0-2.93,0,20.49,20.49,0,0,0-7.14,2.62,46,46,0,0,0-10,8C256.06,29.79,255.2,30.72,254.29,31.69Z"/></g></g></g></svg>