<svg xmlns="http://www.w3.org/2000/svg" viewBox="0 0 735.24 108.43"><defs><style>.cls-1{fill:#f1f2f2;}</style></defs><g id="Layer_2" data-name="Layer 2"><g id="Text"><g id="BjQaZE.tif"><path class="cls-1" d="M273.72,66.61a18,18,0,0,0,.52-3.29c-.13-5.91,0-11.86-.62-17.74-1.26-13-.33-26-.63-39a14.54,14.54,0,0,1,.37-3.66A2.82,2.82,0,0,1,276,.61a83.45,83.45,0,0,1,8.37,0c.6,0,1.3.84,1.66,1.46A4,4,0,0,1,286.23,4q.07,41.34.13,82.69c0,3.55.06,7.1,0,10.65-.05,1.86.14,3.88-1.68,5.18a5.38,5.38,0,0,1-1.84,1c-2.36.5-4.74,1-7.13,1.3-2.16.32-2.68-.06-3.31-2.12-1-3.21-1.93-6.41-2.83-9.63a8.57,8.57,0,0,1-.31-2.67c.24-4.61-1.53-8.8-2.68-13.13-.12-.45-.37-.88-.47-1.34-.62-3-1.21-5.91-1.82-8.86-.72-3.51-1.32-7.06-2.24-10.52a73.14,73.14,0,0,0-2.59-7,5.32,5.32,0,0,1-.26-.66c-.7-3.32-1.4-6.64-2.07-10-.58-2.87-1.12-5.75-1.66-8.63-.17-.92-.16-1.9-.42-2.79-.13-.44-.69-.74-1.05-1.11-.32.45-.93.9-.92,1.35,0,3.55.1,7.09.27,10.63.19,4,.52,8,.74,12.05q.63,11.25,1.22,22.51c.21,4.11.35,8.23.63,12.34q.45,6.58,1.09,13.15c.36,3.71-1.67,5.87-5.42,6.44A25.48,25.48,0,0,1,247,105a2.61,2.61,0,0,1-2.53-2.69c0-1.51,0-3-.12-4.51-.36-7-.76-14.08-1.09-21.12-.15-3,.16-6.11-.33-9.07-1.51-9.12-.63-18.32-1.38-27.46-.49-6.07-1-12.16-1.22-18.25-.23-6.24-.14-12.5-.2-18.75a1.32,1.32,0,0,1,1.37-1.48c4.83-.21,9.66-.45,14.49-.53,1.49,0,2.42.81,3.16,2.34a23.38,23.38,0,0,1,1.81,6.8c.56,3.49,1,7,1.77,10.46.63,3,1.62,5.91,2.37,8.88.44,1.74.73,3.52,1.09,5.28,1.1,5.45,2.15,10.92,3.33,16.36.71,3.31,1.63,6.58,2.43,9.88.24,1,.38,2,.59,3.06.17.82.38,1.62.57,2.43Zm-20.9-40.95.62,0c-.09-1.21-.17-2.43-.26-3.64l-.36,0Z"/><path class="cls-1" d="M439.79,22.22c0,.92,0,1.84,0,2.76.06,1.42.19,2.83.26,4.24.18,3.4.35,6.8.53,10.19.19,3.64.43,7.28.59,10.92.23,5.38.27,10.78.62,16.16.55,8.58,1.29,17.15,1.94,25.73.17,2.31.35,4.63.42,6.94.09,3.3-1.67,4.81-4.79,5.58a20.22,20.22,0,0,1-5.23.26,2.51,2.51,0,0,1-2.49-2.57c-.15-2.82-.33-5.64-.49-8.47-.26-4.72-.56-9.44-.74-14.17-.16-4,.22-8.1-.36-12.05-1.5-10.39-.38-20.89-1.65-31.27-1.31-10.8-.93-21.64-1.12-32.47,0-2,.17-2.31,2.11-2.41q6.75-.36,13.49-.48a3.47,3.47,0,0,1,3.45,2.37A24.32,24.32,0,0,1,448.1,10c.55,3.49,1,7,1.77,10.46.62,3,1.57,5.92,2.32,8.9.37,1.46.61,3,.9,4.44.54,2.69,1,5.38,1.62,8,.89,4,1.85,7.9,2.78,11.84.12.51.22,1,.32,1.53.71,3.37,1.4,6.74,2.12,10.11a7.63,7.63,0,0,0,.41,1.13l.51,0a16.1,16.1,0,0,0,.52-3.18c-.34-7.7-.76-15.39-1.14-23.09,0-.66-.05-1.32-.06-2,0-9.8,0-19.6,0-29.4a56.07,56.07,0,0,1,.34-5.8A2.54,2.54,0,0,1,463,.64c2.83-.17,5.67-.1,8.51-.05,1.13,0,1.6.91,1.81,1.9a6.7,6.7,0,0,1,.07,1.42q.11,40.7.19,81.39c0,4.54-.14,9.09-.15,13.63a4.85,4.85,0,0,1-4.54,4.9c-2,.27-4,.74-6,1s-2.67,0-3.3-2.14c-1-3.24-2-6.49-2.88-9.75a7.76,7.76,0,0,1-.29-2.53c.28-4.63-1.54-8.81-2.66-13.14-.12-.46-.37-.88-.47-1.34-.68-3.32-1.33-6.66-2-10-.65-3.14-1.2-6.31-2-9.4-.64-2.35-1.67-4.6-2.53-6.89-.08-.22-.22-.43-.28-.65-.68-3.09-1.43-6.16-2-9.26-.77-4-1.4-8.09-2.11-12.14-.05-.32-.17-.82-.37-.88-1.74-.52-1.16-1.95-1.3-3.1-.06-.5-.18-1-.27-1.49Z"/><path class="cls-1" d="M532.88,64.81c0-2.85,0-6.78,0-10.71-.18-11.31-.5-22.62-.56-33.93,0-5.53.36-11.07.63-16.6C533.06,1,534.35.09,536.86.39c1.92.22,3.87.3,5.81.35,2.89.08,3.84.78,3.54,3.64-.81,7.65-.51,15.31-.64,23-.09,5.2-.42,10.4-.33,15.6.08,4.67.68,9.33.9,14,.27,6,.38,11.92.57,17.88,0,.52,0,1,.08,1.56.42,3.33.83,6.66,1.29,10s3.44,4.83,6.37,3a14.24,14.24,0,0,0,5.71-7.45c2.2-5.73,1.77-11.66,2-17.53.39-10.77.32-21.57.77-32.34a93.94,93.94,0,0,0-.67-14.14c0-.28,0-.57,0-.85-.17-4.21-.32-8.41-.5-12.62-.11-2.56,0-3.13,2.54-3.58a35.62,35.62,0,0,1,8.18-.51c.85.05,1.65,1.57,2.4,2.46.18.22.13.64.15,1,.29,5.05.57,10.1.87,15.15A7.27,7.27,0,0,0,576.2,21c.91,2.41.46,4.75-.13,7.12a12.24,12.24,0,0,0-.57,3.19c.15,6.24.46,12.47.58,18.71,0,2.5-.28,5-.34,7.5-.07,2.88,0,5.76,0,8.65,0,1.46.11,2.93.06,4.39-.12,3.45-.37,6.9-.46,10.35a40.47,40.47,0,0,1-2.86,12.77c-1.19,3.31-3.54,5.53-6.18,7.53a10.74,10.74,0,0,1-4,1.83c-4,.91-7.82,2.62-12,2.49-5.79-.18-9.9-2.93-12.62-7.9a32.08,32.08,0,0,1-2.38-4.81,17.81,17.81,0,0,1-.69-4.45C534,80.9,533.49,73.4,532.88,64.81Z"/><path class="cls-1" d="M371.27,108.33a24.29,24.29,0,0,1-2.56,0,2.89,2.89,0,0,1-2.92-3.31,36.39,36.39,0,0,1,1.36-9.21c1-3,1.22-6.28,1.77-9.44.59-3.39,1.2-6.78,1.75-10.18.3-1.87.46-3.76.74-5.63.51-3.5,1-7,1.63-10.5.4-2.18,1.25-4.28,1.57-6.46.75-5.14,1.27-10.32,1.94-15.47.53-4,1.08-8.07,1.78-12.07A26.79,26.79,0,0,1,380,20.65c1.2-2.89,1.12-5.92,1.45-8.92.26-2.42.8-4.83,1.3-7.22a2.28,2.28,0,0,1,2.21-1.89c3.44-.24,6.89-.54,10.34-.69a3.34,3.34,0,0,1,3.3,2.62c1.18,4.67,2.29,9.35,3.53,14,.75,2.82,1.67,5.6,2.52,8.39.05.18.13.36.17.54.75,3,1.47,5.93,2.24,8.89.92,3.5,2,7,2.79,10.49.91,4,1.67,8.13,2.31,12.23.7,4.44,1,8.94,1.83,13.35a63.89,63.89,0,0,0,2.57,8.06c.75,2.29,1.59,4.55,2.23,6.87.94,3.4,1.83,6.82,2.57,10.27a55,55,0,0,1,.74,6,1.47,1.47,0,0,1-1.35,1.7c-1.44.27-2.88.53-4.33.72-1.26.17-2.55.19-3.81.35-2.18.29-3.22-.4-3.53-2.6-.25-1.78-.18-3.62-.57-5.36-.69-3.17-1.61-6.29-2.45-9.42-.11-.41-.32-.79-.43-1.2-.8-3-1.5-6-2.41-8.88s-2-5.88-3.14-8.77a2.06,2.06,0,0,0-1.57-1c-4.08,0-8.15.15-12.23.23-2.58.06-2.7.23-3.1,2.77-1,6.54-2.19,13.06-3.2,19.6-.66,4.2-1.17,8.43-1.69,12.65-.32,2.63-.91,3.34-3.58,3.72-1.12.17-2.26.16-3.4.24Zm20.85-50.58c1.6-.36,3.23-.65,4.81-1.1a1.86,1.86,0,0,0,1.4-2.53c-.4-1.39-1-2.74-1.35-4.14-.71-3-1.34-6-2-9-.71-3.51-1.37-7-2.06-10.54a1.46,1.46,0,0,0-.2-.67c-.25-.3-.58-.73-.86-.72a1.53,1.53,0,0,0-1,.69,2,2,0,0,0-.16,1q-.52,7.22-1,14.43c-.22,3.11-.54,6.21-.66,9.33C389,56.92,389.75,57.58,392.12,57.75Z"/><path class="cls-1" d="M584.88,104.41c.62-2.9,1.31-5.77,1.85-8.68.76-4.08,1.41-8.18,2.11-12.27.54-3.12,1.09-6.23,1.61-9.35s1-6.25,1.51-9.38c.17-1.12.23-2.26.4-3.38s.39-2.14.6-3.2c.53-2.63,1.19-5.24,1.58-7.89.77-5.24,1.38-10.5,2.08-15.75.17-1.36.52-2.71.57-4.07.14-3.8,1.8-7.21,2.59-10.83.56-2.52.68-5.14,1.07-7.7s.8-4.83,1.27-7.23a2.41,2.41,0,0,1,2.37-2.08c3.4-.23,6.8-.52,10.2-.67A3.34,3.34,0,0,1,618,4.53c1.18,4.66,2.29,9.34,3.52,14,.75,2.82,1.69,5.6,2.53,8.39.09.27.17.54.24.82.74,3,1.49,5.92,2.23,8.88,1.16,4.71,2.22,9.44,3.5,14.11,1.78,6.56,2.06,13.34,3.19,20A81.11,81.11,0,0,0,636,80.47c.68,2.25,1.57,4.46,2.2,6.73,1,3.48,1.87,7,2.64,10.52a50.71,50.71,0,0,1,.71,5.91,1.48,1.48,0,0,1-1.31,1.74c-1.44.27-2.88.54-4.32.73s-2.74.23-4.1.38c-1.92.22-3-.49-3.27-2.44s-.32-3.68-.57-5.51a25.46,25.46,0,0,0-.76-3.44c-.81-3-1.62-6-2.5-9-.94-3.17-1.94-6.31-2.94-9.46-.6-1.88-1.35-3.71-1.88-5.61-.43-1.59-1.27-2-2.89-1.85-3.74.24-7.49.2-11.23.26-2.65,0-2.75.22-3.16,2.86-1,6.49-2.15,13-3.21,19.46-.19,1.16-.18,2.36-.34,3.53-.48,3.46-1,6.92-1.49,10.39a2.72,2.72,0,0,1-2.68,2.34,41.86,41.86,0,0,1-7.08.18c-1.9-.13-2.64-1.45-2.56-3.73Zm26.83-46.64c1.64-.4,3.3-.73,4.92-1.22a1.71,1.71,0,0,0,1.2-2.25c-.41-1.44-1-2.83-1.37-4.28-.74-3.12-1.38-6.25-2-9.39-.69-3.41-1.34-6.83-2-10.24,0-.23-.13-.46-.2-.68-.29-.85-.9-.85-1.41-.34a2.35,2.35,0,0,0-.54,1.38c-.38,4.65-.71,9.32-1,14-.24,3.24-.55,6.49-.67,9.74C608.47,57,609.2,57.6,611.71,57.77Z"/><path class="cls-1" d="M73.6,49.27c-.16,6-.17,11.93-.53,17.87a112.12,112.12,0,0,1-1.59,13.8A93,93,0,0,1,68,94c-1.12,3.26-2.42,6.6-5,9.09-1.7,1.65-3.3,3.54-5.89,4-2.26.37-4.5,1-6.78,1.23-2.7.32-4.86-1-7-2.47-3.64-2.51-6-6.1-8.56-9.52a22.51,22.51,0,0,1-2.21-4.7c-2.71-6.32-2.72-13.17-3.95-19.78-2.1-11.4-1.4-22.82-.71-34.25A72.53,72.53,0,0,1,29.4,26.94a92.86,92.86,0,0,1,2.82-9.44,24.33,24.33,0,0,1,2.32-5.72,35.67,35.67,0,0,1,5.3-6.56C43.88,1.35,49.08.27,54.48.1A11.12,11.12,0,0,1,63,4a28,28,0,0,1,5.44,9.34c2,4.92,2.79,10,3.71,15.19A107.25,107.25,0,0,1,73.6,49.27ZM63,44.11l-.32,0c0-2.27,0-4.54,0-6.81a14.7,14.7,0,0,0-.17-2c-.33-2.23-.68-4.47-1-6.7a7.74,7.74,0,0,0-.36-1.95c-1.36-3.06-1.19-6.58-3-9.53s-2.87-4.15-6.48-4c-3.92.17-5.42,3.29-7,6.07A37.47,37.47,0,0,0,42,25.45a32.74,32.74,0,0,0-2.14,7.15C39.29,37.72,39.1,42.88,39,48c-.06,2.25.59,4.53.49,6.78-.27,5.71.71,11.31,1.38,16.94.35,3,1.27,6,1.7,9a21.46,21.46,0,0,0,2,7.59c.93,1.68,2.08,3,4.22,3.31,2.6.37,4.42-.8,5.89-2.64A16.53,16.53,0,0,0,57,85.18a32.78,32.78,0,0,0,2.56-7c.84-4.5,1.34-9.07,1.77-13.63C62,57.77,62.42,50.94,63,44.11Z"/><path class="cls-1" d="M482.92,55.55c.33-8.9.57-18.22,1.06-27.53a54.43,54.43,0,0,1,3.23-14.33c1.07-3.21,3.54-5.29,6.39-7.1a45.2,45.2,0,0,1,9.83-4.26,16.8,16.8,0,0,1,4.76-.67c2-.09,4,0,6,.11a5,5,0,0,1,4.91,4.66c.15,2.5.09,5,.07,7.52a1.76,1.76,0,0,1-1.7,1.92c-2.87.27-5.74.61-8.61.74-3.09.13-5.86.91-7.7,3.51a12.08,12.08,0,0,0-2.4,6.43c-.19,4-.32,8-.54,12.05-.17,3.26-.48,6.51-.64,9.76-.17,3.59-.36,7.19-.34,10.78.05,7,.13,13.92.41,20.87a21.07,21.07,0,0,0,1.36,6.5,5.37,5.37,0,0,0,3.84,3.64c1.53.34,3,.85,4.56,1.09,2.41.37,3.8-.76,3.77-3.18,0-5.76-.21-11.52-.34-17.27,0-1.66-.08-3.31-.14-5a2.36,2.36,0,0,0-2.17-2.51c-3.07-.59-3.06-.65-3.05-3.76V51.31c0-1.79.27-2.17,2-2.2,3.4,0,6.82-.15,10.22.08a11,11,0,0,1,4.17,1.6,2.55,2.55,0,0,1,.9,1.79c.21,2,.3,4.05.37,6.08.14,4.4.22,8.8.34,13.19.22,7.52.48,15,.66,22.55a10.49,10.49,0,0,1-3.6,8.58,8.89,8.89,0,0,1-4.26,2.06,72.57,72.57,0,0,1-18.45,0c-3.67-.43-6.92-2.07-8.77-5.54a25.32,25.32,0,0,1-1.86-4.72A62,62,0,0,1,485.5,88,153,153,0,0,1,483.1,59C483.11,58,483,57,482.92,55.55Z"/><path class="cls-1" d="M686.32,58.29c.33,8,.71,16.06,1,24.09a126.39,126.39,0,0,1,.09,13.2c-.38,5.22-3.62,9.51-9.41,9.64-5.26.12-10.53.17-15.77-.11-4-.2-7.53-1.79-9.76-5.43a3.74,3.74,0,0,1-.34-.62,90,90,0,0,1-4-15.59c-1.41-8.23-1.59-16.46-1.63-24.72,0-7.71.25-15.42.48-23.12.1-3.45.24-6.91.67-10.33a52.75,52.75,0,0,1,1.76-7.71c.55-1.95,1.35-3.82,2.07-5.71.9-2.36,3-3.6,4.9-5,3.22-2.31,7-3.5,10.71-4.71a16.43,16.43,0,0,1,4.5-.56c1.89-.07,3.79,0,5.68.11a4.89,4.89,0,0,1,5.12,4.91c.15,2.35.09,4.73.1,7.09a1.88,1.88,0,0,1-1.8,2.14c-2.83.26-5.66.46-8.48.75-1.81.19-3.62.17-5.3,1.27-3.17,2-4.48,5.08-4.81,8.58s-.36,7.18-.55,10.77c-.31,5.66-.79,11.32-.93,17-.17,6.77-.18,13.54,0,20.31a76.38,76.38,0,0,0,1.25,10.53,6,6,0,0,0,4.75,5.18c1.39.32,2.75.76,4.15,1,2.29.33,3.41-.7,3.68-3,.64-5.53-.45-11-.28-16.56.06-1.89-.06-3.78-.17-5.67s-.51-2.28-2.29-2.69L670.2,63a1.65,1.65,0,0,1-1.47-1.79q0-5.19,0-10.36c0-1,.51-1.66,1.52-1.67,3.83,0,7.67-.09,11.5.12a8.46,8.46,0,0,1,3.46,1.53,2.27,2.27,0,0,1,.81,1.54c.21,2,.28,4,.4,5.95Z"/><path class="cls-1" d="M697.48,79.26c0-8.9-.07-17.8,0-26.7.08-6.91.49-13.81.51-20.72,0-8.76-.23-17.52-.33-26.27,0-3.12.76-4.11,3.88-4.16,6.24-.09,12.5,0,18.75.07,2.93,0,5.87.25,8.8.41a10.09,10.09,0,0,1,2,.3c2.37.65,3,1.48,3,3.92,0,1.85,0,3.69,0,5.54a2.07,2.07,0,0,1-1.39,2.09,15.83,15.83,0,0,1-6.48,1.4c-4,0-8,0-12,.08-2.37,0-2.55.16-2.57,2.46-.07,7.38-.16,14.76-.07,22.14a34.65,34.65,0,0,0,1,6.45c.39,1.9,1.25,2.49,3.18,2.57l9.38.41a6.51,6.51,0,0,1,1,.1c4.89,1.1,5.73,2.47,4.93,7.1-.15.89-.37,1.76-.57,2.64-.45,1.9-.7,2.12-2.69,2.21l-14.34.58c-1.4.06-2,.68-2,2.14.15,7,.22,14,.54,21a40.62,40.62,0,0,0,1.32,7.36,2.18,2.18,0,0,0,1.49,1.21,14.7,14.7,0,0,0,3,0c4.84,0,9.68,0,14.51,0,2.43,0,2.91.5,3,2.92s0,4.64,0,7c0,2.1-.61,2.71-2.65,2.89a149.94,149.94,0,0,1-24.16.29,42.66,42.66,0,0,1-7.73-1.73,2,2,0,0,1-1.1-1.31,37.55,37.55,0,0,1-1.24-6.51c-.35-6-.46-11.92-.67-17.88Z"/><path class="cls-1" d="M91.84,106.9c-2.89,0-5.78,0-8.67,0-2.48,0-2.92-.3-3-2.75-.11-2.69-.24-5.38-.36-8.08-.1-2.23.52-2.91,2.77-2.89,5.08,0,10.15.16,15.22.15a10.25,10.25,0,0,0,8.86-4.71,4.39,4.39,0,0,0,.7-1.38,33.11,33.11,0,0,0,1-11.12A20.77,20.77,0,0,0,105,67.49c-3-4.88-7.15-8.87-10.6-13.39a107.85,107.85,0,0,1-7.56-11.41c-2.1-3.61-3.12-7.48-4.28-11.33a34.34,34.34,0,0,1-1-12.25c.12-1.79.29-3.58.55-5.36.6-4.08,3.22-6.7,6.56-8.73a28.68,28.68,0,0,1,5.35-2.85,34.37,34.37,0,0,1,8-1.9,46.26,46.26,0,0,1,13.18.42c2,.39,4,.5,6,.8,1.57.24,2.1,1.44,2.12,2.79.07,3.41.08,6.82,0,10.22,0,1.9-.59,2.3-2.5,2.17-4.34-.29-8.68-.79-13-.85a21.33,21.33,0,0,0-6.53,1.2,7.08,7.08,0,0,0-2.84,2.27C95,23.07,93.91,27.4,95.75,32.17a13.48,13.48,0,0,0,2.31,3.19c3,3.78,6,7.48,8.88,11.36a56,56,0,0,1,3.92,6.71c2.12,3.94,4.23,7.88,6.19,11.89A30.65,30.65,0,0,1,119,70.77c.84,3,1.5,6.13,2.32,9.17,1,3.73.52,7.44-.18,11.1-.55,2.84-1,5.92-3.14,8-1.89,1.89-3.88,3.84-6.61,4.69-2.56.79-5,2.08-7.64,2.47a98.23,98.23,0,0,1-10.6.55c-.42,0-.85,0-1.28,0Z"/><path class="cls-1" d="M174.36,9.26c0,1.37,0,2.75,0,4.12a2.71,2.71,0,0,1-2.37,2.9c-3.08.54-6.17,1-9.25,1.54a4.35,4.35,0,0,0-1.77.43,2.51,2.51,0,0,0-1.08,1.61c.06,2.31.28,4.62.51,6.92.41,4.09.94,8.17,1.28,12.26.19,2.31.08,4.64.15,7,.2,7,.29,14,.68,21,.34,6.17,1.07,12.33,1.57,18.5.2,2.45.28,4.91.39,7.36s.34,4.82.27,7.22a7.75,7.75,0,0,1-.93,4.07,6.42,6.42,0,0,1-3.47,2.37,22.75,22.75,0,0,1-5.78.48c-1.58,0-2.47-1.07-2.56-2.84-.22-4.11-.35-8.23-.61-12.34-.19-3-.57-6-.8-9s-.37-6-.59-8.92c-.45-6.13-1-12.25-1.36-18.39-.24-3.68-.23-7.38-.46-11.06-.51-8.16-1.09-16.31-1.68-24.47a3,3,0,0,0-3.24-2.74c-2.79-.07-5.59-.17-8.38-.18-1.32,0-1.92-.54-2-1.84-.12-3.31-.31-6.61-.39-9.92-.05-2.09.72-2.85,2.83-2.79,3.83.12,7.66.44,11.49.45,2.59,0,5.18-.43,7.78-.55,5.77-.28,11.55-.48,17.32-.72A1.8,1.8,0,0,1,174,3.34c.23,2,.33,3.94.48,5.91Z"/><path class="cls-1" d="M26.19,98.35c0,1.7,0,3.4,0,5.1,0,1.18-.73,1.73-1.83,2-5,1.32-10,1.28-15.12,1.12-1.88,0-3.78.06-5.67.07-2.69,0-3.26-.55-3.29-3.21q-.06-7.11-.1-14.2C.1,68.36,0,47.48,0,26.6c0-7,.26-14,.47-21a13.36,13.36,0,0,1,.75-4A2.44,2.44,0,0,1,2.93.18c3.73-.11,7.49-.31,11.13,1a1.9,1.9,0,0,1,1.48,2.23c-.31,2.77-.69,5.54-.92,8.31s-.38,5.57-.43,8.36c-.16,9.84-.2,19.69-.43,29.53-.1,3.87-.72,7.73-.88,11.59s-.07,7.76-.05,11.64c0,1.65.15,3.3.21,4.95.11,3.6.19,7.19.34,10.78.1,2.46.8,3.06,3.26,2.94s4.64-.27,7-.33c1.84,0,2.4.39,2.57,2.26.14,1.64,0,3.3,0,5Z"/><path class="cls-1" d="M330.07,54.55c0-9.23-.05-18.46,0-27.7,0-7,.2-14,.4-21a14.85,14.85,0,0,1,.79-4.28A2.42,2.42,0,0,1,333,.16c3.68-.06,7.39-.3,11,.94a2,2,0,0,1,1.57,2.31c-.34,2.87-.75,5.72-1,8.59s-.34,5.48-.38,8.22c-.16,9.8-.2,19.6-.43,29.39-.09,3.82-.69,7.63-.84,11.45s-.05,7.85,0,11.77c0,1.27.09,2.55.14,3.83.14,4,.26,8,.45,12,.11,2.38.7,2.87,3.1,2.77s4.92-.23,7.38-.36a1.87,1.87,0,0,1,2.2,1.9c.1,3.54.06,7.09,0,10.63,0,1.07-.75,1.53-1.71,1.79-5,1.37-10.13,1.31-15.25,1.16-1.89,0-3.78.07-5.67.06-2.73,0-3.21-.5-3.22-3.24q-.09-18-.16-36.08c0-4.26,0-8.52,0-12.78Z"/><path class="cls-1" d="M221.56,2.21c1.66.31,3.33.59,5,.94a1.81,1.81,0,0,1,1.51,2c0,1.84-.06,3.68,0,5.52,0,2.51.13,5,.12,7.52s-.18,5.11-.15,7.66c.16,13.06.28,26.12.61,39.18.12,4.9.81,9.79,1.13,14.69.26,3.87.37,7.75.51,11.63.11,3.4.21,6.8.24,10.21,0,2.94-.56,3.6-3.48,3.83-1.83.14-3.68.18-5.52.14a2.13,2.13,0,0,1-2.2-1.86c-.43-2.42-1-4.82-1.17-7.26-.27-3.48-.31-7-.35-10.46-.11-11.74-.06-23.47-.3-35.2-.17-8.41-.72-16.81-1-25.22-.11-2.93-.08-5.86-.13-8.8-.07-3.69-.17-7.38-.22-11.06,0-2.2.59-2.89,2.77-3.11a26.8,26.8,0,0,1,2.69,0Z"/></g></g></g></svg>