<?xml version="1.0" encoding="UTF-8"?>
<svg width="96px" height="101px" viewBox="0 0 96 101" version="1.1" xmlns="http://www.w3.org/2000/svg" xmlns:xlink="http://www.w3.org/1999/xlink">
    <!-- Generator: Sketch 61.2 (89653) - https://sketch.com -->
    <title>Group</title>
    <desc>Created with Sketch.</desc>
    <g id="Page-1" stroke="none" stroke-width="1" fill="none" fill-rule="evenodd">
        <g id="Signs-(no-name)" transform="translate(-2878.000000, -295.000000)" fill="#000000" fill-rule="nonzero">
            <g id="Symbols" transform="translate(1465.058610, 0.718492)">
                <g id="Group" transform="translate(1412.847967, 294.276036)">
                    <g transform="translate(0.000000, 1.999995)" id="Path">
                        <path d="M84.9001115,98.2997507 C80.6001059,98.2997507 76.4001003,98.0997512 72.2000948,97.8997517 C67.5000886,97.6997523 62.6000822,97.399753 58.0000762,97.4997528 C49.7000653,97.5997525 40.8000536,97.5997525 32.1000422,96.999754 L30.4000399,96.8997543 C23.5000309,96.3997556 15.0000197,95.8997568 9.00001182,90.8997695 C2.60000341,85.3997834 1.80000236,76.9998047 1.10000144,70.199822 L1.10000144,69.9998225 C0.100000131,60.0998476 0.500000657,49.9998732 0.800001051,40.1998981 C1.00000131,34.5999123 1.20000158,28.799927 1.10000144,23.1999412 C1.00000131,17.9999544 1.10000144,10.5999731 1.20000158,5.19998681 L1.20000158,3.89999011 C1.20000158,1.69999569 3.00000394,0 5.20000683,0 C7.40000972,0 9.10001195,1.79999544 9.10001195,3.99998986 L9.10001195,5.29998656 C9.00001182,10.6999729 8.90001169,17.9999544 9.00001182,23.0999414 C9.10001195,28.8999267 8.80001156,34.7999118 8.60001129,40.4998973 C8.3000109,49.9998732 7.90001038,59.8998481 8.80001156,69.2998243 L8.80001156,69.4998238 C9.40001235,75.3998088 10.0000131,81.5997931 13.9000183,84.9997845 C17.9000235,88.2997761 24.7000324,88.7997748 30.7000403,89.1997738 L32.4000426,89.2997736 C40.8000536,89.899772 49.500065,89.899772 57.6000756,89.7997723 C62.5000821,89.6997725 67.5000886,89.9997718 72.300095,90.1997713 C78.5001031,90.4997705 85.0001116,90.7997698 91.1001196,90.3997708 C93.3001225,90.299771 95.200125,91.899767 95.3001252,94.0997614 C95.4001253,96.2997558 93.8001232,98.199751 91.6001203,98.2997507 C89.6001177,98.199751 87.3001147,98.2997507 84.9001115,98.2997507 Z"></path>
                    </g>
                    <g transform="translate(20.647586, 0.318647)" id="Path">
                        <g>
                            <path d="M17.6000231,44.6998867 C17.1000225,44.6998867 16.6000218,44.6998867 16.000021,44.5998869 C4.50000591,43.0998907 0.700000919,29.199926 0.900001182,17.7999549 C0.900001182,15.2999612 1.00000131,12.599968 1.20000158,9.8999749 C1.20000158,9.49997591 1.20000158,8.99997718 1.30000171,8.59997819 C1.30000171,8.19997921 1.30000171,7.79998022 1.40000184,7.39998124 C1.40000184,7.19998174 1.40000184,6.69998301 1.40000184,6.29998402 C1.40000184,3.19999949 3.80000499,2.09999467 5.40000709,2.09999467 C5.40000709,2.09999467 5.40000709,2.09999467 5.40000709,2.09999467 C7.60000998,2.09999467 9.30001221,3.99998986 9.30001221,6.09998453 C9.30001221,6.19998428 9.30001221,6.19998428 9.30001221,6.29998402 L9.30001221,6.29998402 C9.30001221,6.69998301 9.30001221,7.39998124 9.30001221,7.59998073 C9.30001221,7.99997971 9.30001221,8.49997845 9.20001208,8.89997743 C9.20001208,9.29997642 9.20001208,9.6999754 9.10001195,10.0999744 C9.00001182,12.6999678 8.90001169,15.2999612 8.80001156,17.6999551 C8.70001143,23.7999396 10.3000135,35.6999095 17.0000223,36.5999072 C20.9000274,36.9999062 23.0000302,32.8999166 23.9000314,30.3999229 C26.5000348,22.9999417 26.5000348,15.0999617 26.5000348,6.69998301 L26.5000348,4.19998935 C26.5000348,1.99999493 28.3000372,0.199999493 30.5000401,0.199999493 C32.7000429,0.199999493 34.5000453,1.99999493 34.5000453,4.19998935 L34.5000453,6.69998301 C34.5000453,15.3999609 34.6000454,24.2999384 31.5000414,32.9999163 C28.7000377,40.4998973 23.7000311,44.6998867 17.6000231,44.6998867 Z"></path>
                        </g>
                    </g>
                    <g transform="translate(55.647632, 32.318566)" id="Path">
                        <g>
                            <path d="M17.3000227,40.0998983 C15.9000209,40.0998983 14.7000193,39.7998991 13.700018,39.4998998 C5.40000709,36.7999067 1.00000131,25.6999348 1.00000131,16.5999579 C1.00000131,16.3999584 1.00000131,16.0999592 1.00000131,15.6999602 C0.700000919,6.79998276 1.00000131,3.59999087 3.70000486,1.99999493 C5.60000735,0.899997718 8.00001051,1.4999962 9.10001195,3.39999138 C9.900013,4.79998783 9.80001287,6.39998377 9.00001182,7.59998073 C8.90001169,8.3999787 8.70001143,10.3999736 8.90001169,15.3999609 C8.90001169,15.9999594 8.90001169,16.3999584 8.90001169,16.5999579 C8.90001169,23.6999399 12.200016,30.6999222 16.1000211,31.9999189 C19.4000255,32.9999163 22.8000299,29.0999262 24.6000323,26.6999323 C26.2000344,24.3999381 27.400036,21.699945 28.1000369,18.5999528 C29.1000382,14.2999637 29.1000382,9.49997591 29.1000382,4.79998783 L29.1000382,4.2999891 C29.1000382,2.09999467 30.9000406,0.299999239 33.1000435,0.299999239 C35.3000464,0.299999239 37.1000487,2.09999467 37.1000487,4.2999891 L37.1000487,4.79998783 C37.1000487,9.8999749 37.1000487,15.1999615 35.800047,20.3999483 C34.9000458,24.4999379 33.2000436,28.0999287 31.0000407,31.2999206 C25.900034,38.3999026 21.0000276,40.0998983 17.3000227,40.0998983 Z"></path>
                        </g>
                    </g>
                    <g transform="translate(31.647601, 38.318551)" id="Path">
                        <g>
                            <path d="M4.50000066,59.5998489 C2.30000302,59.5998489 0.500000657,57.7998534 0.500000657,55.599859 L0.500000657,4.0999896 C0.500000657,1.89999518 2.30000302,0.0999997464 4.50000066,0.0999997464 C6.7000088,0.0999997464 8.50001116,1.89999518 8.50001116,4.0999896 L8.50001116,55.599859 C8.40001103,57.7998534 6.7000088,59.5998489 4.50000066,59.5998489 Z"></path>
                        </g>
                    </g>
                    <g transform="translate(66.647647, 66.318480)" id="Path">
                        <g>
                            <path d="M5.50000722,30.7999219 C3.30000433,30.7999219 1.50000197,28.9999265 1.50000197,26.799932 C1.50000197,23.1999412 1.40000118,19.4999506 1.20000158,15.8999597 C1.10000144,12.2999688 0.900001182,8.49997845 0.900001182,4.79998783 C0.900001182,2.59999341 2.70000355,0.799997971 4.90000118,0.799997971 C7.10000932,0.799997971 8.90001169,2.59999341 8.90001169,4.79998783 C8.90001169,8.3999787 9.00001182,12.0999693 9.20001208,15.6999602 C9.30001221,19.2999511 9.50001248,23.0999414 9.50001248,26.799932 C9.50001248,28.9999265 7.70001011,30.7999219 5.50000722,30.7999219 Z"></path>
                        </g>
                    </g>
                </g>
            </g>
        </g>
    </g>
</svg>