<?xml version="1.0" encoding="UTF-8"?>
<svg width="68px" height="92px" viewBox="0 0 68 92" version="1.1" xmlns="http://www.w3.org/2000/svg" xmlns:xlink="http://www.w3.org/1999/xlink">
    <!-- Generator: Sketch 61.2 (89653) - https://sketch.com -->
    <title>Group</title>
    <desc>Created with Sketch.</desc>
    <g id="Page-1" stroke="none" stroke-width="1" fill="none" fill-rule="evenodd">
        <g id="Signs-(no-name)" transform="translate(-4186.000000, -298.000000)" fill="#000000" fill-rule="nonzero">
            <g id="Symbols" transform="translate(1465.058610, 0.718492)">
                <g id="Group" transform="translate(2719.849684, 297.276029)">
                    <g transform="translate(30.550207, 30.396023)" id="Shape">
                        <g>
                            <path d="M4.40000053,43.9998884 C2.20000289,43.9998884 0.400000525,42.199893 0.400000525,39.9998986 C0.400000525,38.7999016 0.900000525,37.6999044 1.70000223,36.8999064 C3.40000053,35.2999105 6.00000788,35.3999102 9.00001182,35.49991 C9.40001235,35.49991 9.80001287,35.49991 10.1000133,35.49991 C12.3000162,35.3999102 14.6000192,35.3999102 16.8000221,35.3999102 C20.1000264,35.3999102 23.3000306,35.3999102 26.5000348,35.099911 C26.6000349,35.099911 26.7000351,35.099911 26.8000352,35.099911 C26.9000353,35.099911 27.2000357,35.099911 27.7000364,35.099911 C27.9000366,35.099911 28.4000373,35.099911 28.8000378,35.099911 C29.6000389,31.8999191 29.5000387,26.9999315 29.4000386,22.9999417 C29.3000385,20.1999488 29.2000383,17.5999554 29.4000386,15.3999609 C29.6000389,12.8999673 29.700039,10.5999731 29.8000391,8.3999787 C29.8000391,8.29997895 29.700039,7.79998022 29.700039,7.49998098 C29.5000387,5.5999858 29.1000382,2.69999315 31.9000419,1.39999645 C33.500044,0.599998479 35.4000465,0.999997464 36.7000482,2.29999417 C37.9000498,3.49999112 38.10005,5.19998681 37.6000494,6.59998326 C37.7000495,7.39998124 37.8000496,8.09997946 37.8000496,8.79997769 C37.7000495,11.0999719 37.6000494,13.4999658 37.4000491,16.0999592 C37.300049,17.8999546 37.300049,20.2999485 37.4000491,22.7999422 C37.6000494,29.0999262 37.8000496,36.299908 35.000046,40.999896 C35.000046,41.0998958 34.9000458,41.0998958 34.9000458,41.1998955 C33.6000441,43.1998905 31.9000419,43.1998905 27.5000361,42.999891 C27.3000359,42.999891 27.1000356,42.999891 27.0000355,42.999891 C23.600031,43.1998905 20.2000265,43.1998905 17.0000223,43.2998902 C14.9000196,43.2998902 12.6000165,43.2998902 10.5000138,43.3998899 C10.0000131,43.3998899 9.50001248,43.3998899 8.80001156,43.2998902 C8.3000109,43.2998902 7.30000959,43.1998905 6.60000867,43.1998905 C5.90000053,43.7998889 5.20000683,43.9998884 4.40000053,43.9998884 Z"></path>
                        </g>
                    </g>
                    <g transform="translate(16.000021, 0.146000)" id="Shape">
                        <g>
                            <path d="M4.20000026,43.2998902 C2.00000263,43.2998902 0.200000263,41.4998948 0.200000263,39.2999003 C0.200000263,38.0999034 0.700000263,36.9999062 1.50000197,36.1999082 C3.20000026,34.5999123 5.80000762,34.699912 8.80001156,34.7999118 C9.20001208,34.7999118 9.60001261,34.7999118 9.900013,34.7999118 C12.1000159,34.699912 14.4000189,34.699912 16.6000218,34.699912 C19.9000261,34.699912 23.1000303,34.699912 26.3000345,34.3999128 C26.4000347,34.3999128 26.5000348,34.3999128 26.6000349,34.3999128 C26.7000351,34.3999128 27.0000355,34.3999128 27.5000361,34.3999128 C27.7000364,34.3999128 28.200037,34.3999128 28.6000376,34.3999128 C29.4000386,31.1999209 29.3000385,26.2999333 29.2000383,22.2999435 C29.1000382,19.4999506 29.0000381,16.8999571 29.2000383,14.6999627 C29.4000386,12.1999691 29.5000387,9.8999749 29.6000389,7.69998047 C29.6000389,7.59998073 29.5000387,7.099982 29.5000387,6.79998276 C29.3000385,4.89998757 28.900038,1.99999493 31.7000416,0.699998225 C33.3000437,-0.0999997464 35.2000462,0.299999239 36.5000479,1.59999594 C37.7000495,2.7999929 37.9000498,4.49998859 37.4000491,5.89998504 C37.5000492,6.69998301 37.6000494,7.39998124 37.6000494,8.09997946 C37.5000492,10.3999736 37.4000491,12.7999675 37.2000489,15.3999609 C37.1000487,17.1999564 37.1000487,19.5999503 37.2000489,22.099944 C37.4000491,28.399928 37.6000494,35.5999097 34.8000457,40.2998978 C34.8000457,40.3998976 34.7000456,40.3998976 34.7000456,40.4998973 C33.4000439,42.4998922 31.7000416,42.4998922 27.3000359,42.2998927 C27.1000356,42.2998927 26.9000353,42.2998927 26.8000352,42.2998927 C23.4000307,42.4998922 20.0000263,42.4998922 16.8000221,42.599892 C14.7000193,42.599892 12.4000163,42.599892 10.3000135,42.6998917 C9.80001287,42.6998917 9.30001221,42.6998917 8.60001129,42.599892 C8.10001064,42.599892 7.10000932,42.4998922 6.40000841,42.4998922 C5.70000026,43.0998907 5.00000657,43.2998902 4.20000026,43.2998902 Z"></path>
                        </g>
                    </g>
                    <g transform="translate(34.279045, 70.459821) rotate(-180.000000) translate(-34.279045, -70.459821) translate(15.279020, 48.959876)" id="Shape">
                        <g>
                            <path d="M33.6000441,0.0999997464 C34.7000456,0.0999997464 35.800047,0.499998732 36.6000481,1.39999645 C37.8000496,2.59999975 38.0000499,4.2999891 37.5000492,5.69998555 C37.6000494,6.49998352 37.7000495,7.19998174 37.7000495,7.89997997 C37.6000494,10.1999741 37.5000492,12.599968 37.300049,15.1999615 C37.2000489,16.9999569 37.2000489,19.3999508 37.300049,21.8999445 C37.5000492,28.1999285 37.7000495,35.3999102 34.9000458,40.0998983 C34.9000458,40.1998981 34.8000457,40.1998981 34.8000457,40.2998978 C33.500044,42.2998927 32.000042,42.2998927 27.400036,42.0998932 C27.2000357,42.0998932 27.0000355,42.0998932 26.9000353,42.0998932 C23.5000309,42.2998927 20.1000264,42.2998927 16.9000222,42.3998925 C14.8000194,42.3998925 12.5000164,42.3998925 10.4000137,42.4998922 C10.0000131,42.4998922 9.40001235,42.4998922 8.70001143,42.3998925 C8.20001077,42.3998925 7.20000946,42.2998927 6.50000854,42.2998927 C5.90000053,42.6998917 5.20000683,42.8998912 4.40000053,42.8998912 C2.20000289,42.8998912 0.400000525,41.0998958 0.400000525,38.8999014 C0.400000525,37.6999044 0.900000525,36.5999072 1.70000223,35.7999092 C3.40000053,34.1999133 6.00000788,34.299913 9.00001182,34.3999128 C9.40001235,34.3999128 9.80001287,34.3999128 10.1000133,34.3999128 C12.3000162,34.299913 14.6000192,34.299913 16.8000221,34.299913 C20.1000264,34.299913 23.3000306,34.299913 26.5000348,33.9999138 C26.6000349,33.9999138 26.7000351,33.9999138 26.8000352,33.9999138 C26.9000353,33.9999138 27.2000357,33.9999138 27.7000364,33.9999138 C27.9000366,33.9999138 28.4000373,33.9999138 28.8000378,33.9999138 C29.6000389,30.7999219 29.5000387,25.8999343 29.4000386,21.8999445 C29.3000385,19.0999516 29.2000383,16.4999582 29.4000386,14.2999637 C29.6000389,11.7999701 29.700039,9.49997591 29.8000391,7.29998149 C29.8000391,7.19998174 29.700039,6.69998301 29.700039,6.39998377 C29.5000387,4.49998859 29.1000382,1.59999975 31.9000419,0.299999239 C32.4000426,0.199999493 33.0000433,0.0999997464 33.6000441,0.0999997464 Z"></path>
                        </g>
                    </g>
                    <g transform="translate(20.314027, 39.709899) rotate(-180.000000) translate(-20.314027, -39.709899) translate(0.814001, 17.709955)" id="Shape">
                        <g>
                            <path d="M34.1000448,0.799997971 C35.2000462,0.799997971 36.3000477,1.19999696 37.1000487,2.09999467 C38.3000503,3.29999797 38.5000506,4.99998732 38.0000499,6.39998377 C38.10005,7.19998174 38.2000502,7.89997997 38.2000502,8.59997819 C38.10005,10.8999724 38.0000499,13.2999663 37.8000496,15.8999597 C37.7000495,17.6999551 37.7000495,20.099949 37.8000496,22.5999427 C38.0000499,28.8999267 38.2000502,36.0999085 35.4000465,40.7998965 C35.4000465,40.8998963 35.3000464,40.8998963 35.3000464,40.999896 C34.0000447,42.999891 32.3000424,42.999891 27.9000366,42.7998915 C27.7000364,42.7998915 27.5000361,42.7998915 27.400036,42.7998915 C24.0000315,42.999891 20.6000271,42.999891 17.4000229,43.0998907 C15.3000201,43.0998907 13.0000171,43.0998907 10.9000143,43.1998905 C10.4000137,43.1998905 9.900013,43.1998905 9.20001208,43.0998907 C8.70001143,43.0998907 7.70001011,42.999891 7.00000919,42.999891 C6.40000118,43.3998899 5.70000749,43.5998894 4.90000118,43.5998894 C2.70000355,43.5998894 0.900001182,41.799894 0.900001182,39.5998996 C0.900001182,38.3999026 1.40000118,37.2999054 2.20000289,36.4999074 C3.90000118,34.8999115 6.50000854,34.9999112 9.50001248,35.099911 C9.900013,35.099911 10.3000135,35.099911 10.6000139,35.099911 C12.8000168,34.9999112 15.1000198,34.9999112 17.3000227,34.9999112 C20.6000271,34.9999112 23.8000313,34.9999112 27.0000355,34.699912 C27.1000356,34.699912 27.2000357,34.699912 27.3000359,34.699912 C27.400036,34.699912 27.7000364,34.699912 28.200037,34.699912 C28.4000373,34.699912 28.900038,34.699912 29.3000385,34.699912 C30.1000395,31.4999201 30.0000394,26.5999325 29.9000393,22.5999427 C29.8000391,19.7999498 29.700039,17.1999564 29.9000393,14.999962 C30.1000395,12.4999683 30.2000397,10.1999741 30.3000398,7.99997971 C30.3000398,7.89997997 30.2000397,7.39998124 30.2000397,7.099982 C30.0000394,5.19998681 29.6000389,2.29999797 32.4000426,0.999997464 C32.9000432,0.899997718 33.500044,0.799997971 34.1000448,0.799997971 Z"></path>
                        </g>
                    </g>
                </g>
            </g>
        </g>
    </g>
</svg>