<?xml version="1.0" encoding="UTF-8"?>
<svg width="93px" height="102px" viewBox="0 0 93 102" version="1.1" xmlns="http://www.w3.org/2000/svg" xmlns:xlink="http://www.w3.org/1999/xlink">
    <!-- Generator: Sketch 61.2 (89653) - https://sketch.com -->
    <title>Group</title>
    <desc>Created with Sketch.</desc>
    <g id="Page-1" stroke="none" stroke-width="1" fill="none" fill-rule="evenodd">
        <g id="Signs-(no-name)" transform="translate(-3363.000000, -486.000000)" fill="#000000" fill-rule="nonzero">
            <g id="Symbols" transform="translate(1465.058610, 0.718492)">
                <g id="Group" transform="translate(1897.848604, 484.275554)">
                    <g transform="translate(20.471130, 0.584799)" id="Shape">
                        <g>
                            <path d="M24.1000317,54.9998605 C19.000025,54.9998605 14.3000188,53.1998651 10.5000138,49.699874 C4.40000578,44.0998882 1.10000144,35.2999105 0.500000657,22.7999422 C-0.100000131,12.999967 0.700000919,12.0999693 1.6000021,11.1999716 C2.30000302,10.3999736 3.40000447,9.8999749 4.50000591,9.8999749 C6.7000088,9.8999749 8.50001116,11.6999703 8.50001116,13.8999648 C8.50001116,14.3999635 8.40001103,14.7999625 8.3000109,15.1999615 C8.20001077,16.6999577 8.40001103,21.0999465 8.40001103,22.3999432 C8.90001169,32.7999168 11.3000148,39.7998991 15.8000208,43.8998887 C18.5000243,46.2998826 21.7000285,47.3998798 25.5000335,46.9998808 C31.0000407,46.4998821 37.0000486,42.8998912 40.8000536,37.8999039 C43.2000567,34.699912 44.8000588,30.4999227 45.6000599,25.1999361 C46.7000613,18.0999541 46.7000613,10.7999726 46.5000611,4.59998834 C46.4000609,2.39999391 48.2000633,0.599998479 50.3000661,0.499998732 C52.5000689,0.399998986 54.3000713,2.19999442 54.4000714,4.2999891 C54.6000717,10.7999726 54.6000717,18.5999528 53.4000701,26.3999331 C52.4000688,32.9999163 50.3000661,38.2999029 47.1000619,42.599892 C42.0000552,49.3998747 34.0000447,54.0998628 26.2000344,54.799861 C25.6000336,54.8998608 24.8000326,54.9998605 24.1000317,54.9998605 Z M5.80000762,17.5999554 C5.40000709,17.6999564 5.00000657,17.7999549 4.60000604,17.7999549 C5.00000657,17.7999549 5.40000709,17.6999564 5.80000762,17.5999554 Z"></path>
                        </g>
                    </g>
                    <g transform="translate(47.995063, 74.909810) rotate(-180.000000) translate(-47.995063, -74.909810) translate(19.995026, 46.909881)" id="Shape">
                        <g>
                            <path d="M51.1000671,0.899997718 C53.2000699,0.899997718 55.0000722,2.59999341 55.0000722,4.69998808 C55.2000725,11.1999716 55.2000725,18.9999518 54.0000709,26.799932 C53.0000696,33.3999153 50.9000668,38.6999019 47.7000626,42.999891 C42.6000559,49.7998737 34.6000454,54.4998618 26.8000352,55.19986 C20.8000273,55.7998585 15.4000202,53.9998631 11.0000144,49.9998732 C4.90000644,44.3998874 1.6000021,35.5999097 1.00000131,23.0999414 C0.400000525,13.1999665 1.10000144,12.4999683 2.10000276,11.4999708 C2.80000368,10.6999729 3.90000512,10.1999741 5.00000657,10.1999741 C7.20000946,10.1999741 9.00001182,11.9999696 9.00001182,14.199964 C9.00001182,14.6999627 8.90001169,15.0999617 8.80001156,15.4999607 C8.70001143,16.9999569 8.90001169,21.3999457 8.90001169,22.6999424 C9.40001235,33.0999161 11.8000155,40.0998983 16.3000214,44.1998879 C19.000025,46.5998818 22.2000292,47.699879 26.0000341,47.2998801 C31.5000414,46.7998813 37.5000492,43.1998905 41.3000542,38.1999031 C43.7000574,34.9999112 45.3000595,30.7999219 46.1000605,25.4999353 C47.200062,18.3999533 47.200062,11.0999719 47.0000617,4.89998757 C46.9000616,2.69999315 48.700064,0.899997718 50.8000667,0.799997971 C51.000067,0.899997718 51.1000671,0.899997718 51.1000671,0.899997718 Z M5.20000683,18.0999541 C5.60000735,18.0999541 6.00000788,17.9999556 6.40000841,17.8999546 C6.00000788,17.9999556 5.60000735,18.0999541 5.20000683,18.0999541 Z"></path>
                        </g>
                    </g>
                    <g transform="translate(0.485201, 12.754356)" id="Path">
                        <g>
                            <path d="M21.7000285,23.0999414 C17.2000226,23.0999414 12.9000169,22.5999427 8.90001169,21.299946 C5.50000722,20.1999488 1.30000171,17.2999561 0.400000525,10.3999736 C0.200000263,8.79997769 0.100000131,7.39998124 0.300000394,6.09998453 C0.300000394,5.89998504 0.400000525,5.39998631 0.400000525,4.99998732 C0.400000525,4.89998757 0.400000525,4.89998757 0.400000525,4.79998783 C0.400000525,4.2999891 0.400000525,3.89999011 0.600000788,3.39999138 C1.30000171,1.09999721 3.5000046,0.199999493 5.30000696,0.599998479 C6.90000906,0.999997464 8.80001156,2.19999442 8.3000109,5.99998479 C8.3000109,6.29998402 8.20001077,6.49998352 8.20001077,6.69998301 C8.10001064,7.39998124 8.20001077,8.29997895 8.3000109,9.29997642 C8.70001143,12.3999686 10.1000133,13.2999663 11.5000151,13.799965 C18.300024,16.0999592 27.6000362,15.0999617 35.7000469,14.0999642 C38.7000508,13.799965 41.5000545,13.399966 44.200058,13.2999663 C46.4000609,13.1999665 48.3000634,14.7999625 48.4000636,16.9999569 C48.5000637,19.1999513 46.9000616,21.0999465 44.7000587,21.1999462 C42.2000554,21.3999457 39.4000517,21.699945 36.6000481,21.9999442 C31.8000418,22.4999429 26.7000351,23.0999414 21.7000285,23.0999414 Z"></path>
                        </g>
                    </g>
                    <g transform="translate(68.169090, 74.839810) rotate(180.000000) translate(-68.169090, -74.839810) translate(43.669057, 63.339839)" id="Path">
                        <g>
                            <path d="M4.70000617,0.299999239 C5.00000657,0.299999239 5.30000696,0.299999239 5.60000735,0.399998986 C7.20000946,0.799999239 9.10001195,1.99999493 8.60001129,5.79998529 C8.60001129,6.09998453 8.50001116,6.29998402 8.50001116,6.49998352 C8.40001103,7.19998174 8.50001116,8.09997946 8.60001129,9.09997692 C9.00001182,12.1999691 10.4000137,13.0999668 11.8000155,13.5999655 C18.6000244,15.8999597 27.9000366,14.8999622 36.0000473,13.8999648 C39.0000512,13.5999655 41.8000549,13.1999665 44.5000584,13.0999668 C46.7000613,12.999967 48.6000638,14.599963 48.700064,16.7999574 C48.8000641,18.9999518 47.200062,20.899947 45.0000591,20.9999467 C42.5000558,21.1999462 39.7000521,21.4999455 36.9000485,21.7999447 C27.9000366,22.7999422 17.7000232,23.8999394 9.20001208,21.0999465 C5.80000762,19.9999493 1.6000021,17.0999566 0.700000919,10.1999741 C0.500000657,8.59997819 0.400000525,7.19998174 0.600000788,5.89998504 C0.600000788,5.69998555 0.700000919,5.19998681 0.700000919,4.79998783 C0.700000919,4.69998808 0.700000919,4.69998808 0.700000919,4.59998834 C0.700000919,4.0999896 0.700000919,3.69999062 0.900001182,3.19999189 C1.50000197,1.19999696 3.10000407,0.299999239 4.70000617,0.299999239 Z"></path>
                        </g>
                    </g>
                </g>
            </g>
        </g>
    </g>
</svg>