<?xml version="1.0" encoding="UTF-8"?>
<svg width="88px" height="106px" viewBox="0 0 88 106" version="1.1" xmlns="http://www.w3.org/2000/svg" xmlns:xlink="http://www.w3.org/1999/xlink">
    <!-- Generator: Sketch 61.2 (89653) - https://sketch.com -->
    <title>Group</title>
    <desc>Created with Sketch.</desc>
    <g id="Page-1" stroke="none" stroke-width="1" fill="none" fill-rule="evenodd">
        <g id="Signs-(no-name)" transform="translate(-3366.000000, -292.000000)" fill="#000000" fill-rule="nonzero">
            <g id="Symbols" transform="translate(1465.058610, 0.718492)">
                <g id="Group" transform="translate(1900.848608, 291.276044)">
                    <g transform="translate(0.513578, 0.954227)" id="Path">
                        <g>
                            <path d="M4.60000604,104.699735 C2.40000053,104.699735 0.600000788,102.899739 0.600000788,100.699745 C0.600000788,84.5997855 0.500000657,68.1998271 0.500000657,52.2998674 C0.400000525,36.4999074 0.400000525,20.099949 0.400000525,3.99998986 C0.400000525,1.79999544 2.20000289,-4.54746198e-13 4.40000053,-4.54746198e-13 C6.60000867,-4.54746198e-13 8.40001103,1.79999544 8.40001103,3.99998986 C8.40001103,20.099949 8.50001116,36.3999077 8.50001116,52.1998676 C8.60001129,68.0998273 8.60001129,84.4997857 8.60001129,100.599745 C8.60001129,102.899739 6.80000893,104.699735 4.60000604,104.699735 Z"></path>
                        </g>
                    </g>
                    <g transform="translate(78.764683, 0.954227)" id="Path">
                        <g>
                            <path d="M5.00000657,104.699735 C2.80000105,104.699735 1.00000131,102.899739 1.00000131,100.699745 C1.00000131,84.5997855 0.900001182,68.1998271 0.900001182,52.2998674 C0.800001051,36.4999074 0.800001051,20.099949 0.800001051,3.99998986 C0.800001051,1.79999544 2.60000341,-4.54746198e-13 4.80000105,-4.54746198e-13 C7.00000919,-4.54746198e-13 8.80001156,1.79999544 8.80001156,3.99998986 C8.80001156,20.099949 8.90001169,36.3999077 8.90001169,52.1998676 C9.00001182,68.0998273 9.00001182,84.4997857 9.00001182,100.599745 C8.90001169,102.899739 7.20000946,104.699735 5.00000657,104.699735 Z"></path>
                        </g>
                    </g>
                    <g transform="translate(1.513579, 13.954194)" id="Shape">
                        <g>
                            <path d="M41.100054,47.3998798 C39.2000515,47.3998798 37.5000492,45.9998834 37.2000489,43.9998884 C36.8000483,41.0998958 36.6000481,37.8999039 36.4000478,34.8999115 C35.800047,25.3999356 35.3000464,16.3999584 28.0000368,11.4999708 C24.1000317,8.79997769 17.6000231,8.79997769 13.0000171,8.79997769 C13.0000171,8.79997769 12.7000167,8.79997769 12.4000163,8.79997769 C5.00000657,9.19997667 3.5000046,8.99997718 2.00000263,7.69998047 C1.20000092,6.99998225 0.700000919,5.79998529 0.700000919,4.79998783 C0.700000919,2.59999341 2.50000328,0.799997971 4.70000092,0.799997971 C5.20000092,0.799997971 5.80000762,0.899997718 6.20000092,1.09999721 C6.90000906,1.09999721 8.50001116,1.09999721 11.9000156,0.899997718 C12.5000164,0.899997718 12.8000168,0.899997718 13.0000171,0.899997718 C18.4000242,0.899997718 26.5000348,0.899997718 32.5000427,4.89998757 C43.0000565,11.9999696 43.8000575,23.8999394 44.4000583,34.3999128 C44.6000586,37.3999052 44.7000587,40.1998981 45.1000592,42.7998915 C45.4000596,44.9998859 43.9000577,46.9998808 41.8000549,47.2998801 C41.5000545,47.3998798 41.3000542,47.3998798 41.100054,47.3998798 Z M8.50001116,3.89999011 C8.60001129,4.19998935 8.60001129,4.49998859 8.60001129,4.69998808 C8.60001129,4.49998859 8.50001116,4.19998935 8.50001116,3.89999011 Z"></path>
                        </g>
                    </g>
                    <g transform="translate(17.513600, 33.779732)" id="Shape">
                        <g>
                            <path d="M24.5000322,54.6998613 C19.4000255,54.6998613 14.7000193,52.8998659 10.9000143,49.3998747 C4.8000063,43.7998889 1.50000197,34.9999112 0.900001182,22.4999429 C0.300000394,12.599968 1.00000131,11.8999698 2.00000263,10.8999724 C2.70000355,10.0999744 3.80000499,9.59997566 4.90000644,9.59997566 C7.10000932,9.59997566 8.90001169,11.3999711 8.90001169,13.5999655 C8.90001169,14.0999642 8.80001156,14.4999632 8.70001143,14.8999622 C8.60001129,16.3999584 8.80001156,20.7999473 8.80001156,22.099944 C9.30001221,32.4999176 11.7000154,39.4998998 16.2000213,43.5998894 C18.9000248,45.9998834 22.100029,47.0998806 25.900034,46.6998816 C31.4000412,46.1998828 37.4000491,42.599892 41.2000541,37.5999047 C43.6000573,34.3999128 45.2000594,30.1999234 46.0000604,24.8999369 C47.1000619,17.7999549 47.1000619,10.4999734 46.9000616,4.2999891 C46.8000615,2.09999467 48.6000638,0.299999239 50.7000666,0.199999493 C52.9000695,0.0999997464 54.7000718,1.89999518 54.800072,3.99998986 C55.0000722,10.5999731 55.0000722,18.2999536 53.8000707,26.0999338 C52.8000693,32.6999171 50.7000666,37.9999036 47.5000624,42.2998927 C42.4000557,49.0998755 34.4000452,53.7998636 26.6000349,54.4998618 C25.900034,54.6998613 25.2000331,54.6998613 24.5000322,54.6998613 Z M6.10000801,17.3999559 C5.70000749,17.4999569 5.30000696,17.5999554 4.90000644,17.5999554 C5.40000644,17.4999569 5.80000762,17.4999569 6.10000801,17.3999559 Z"></path>
                        </g>
                    </g>
                </g>
            </g>
        </g>
    </g>
</svg>