<?xml version="1.0" encoding="UTF-8"?>
<svg width="106px" height="101px" viewBox="0 0 106 101" version="1.1" xmlns="http://www.w3.org/2000/svg" xmlns:xlink="http://www.w3.org/1999/xlink">
    <!-- Generator: Sketch 61.2 (89653) - https://sketch.com -->
    <title>Group</title>
    <desc>Created with Sketch.</desc>
    <g id="Page-1" stroke="none" stroke-width="1" fill="none" fill-rule="evenodd">
        <g id="Signs-(no-name)" transform="translate(-3030.000000, -486.000000)" fill="#000000" fill-rule="nonzero">
            <g id="Symbols" transform="translate(1465.058610, 0.718492)">
                <g id="Group" transform="translate(1564.848167, 485.275552)">
                    <g transform="translate(0.000000, 0.377599)" id="Shape">
                        <g>
                            <path d="M55.3000726,46.4998821 C55.2000725,46.4998821 55.0000722,46.4998821 54.9000721,46.4998821 C49.0000644,46.3998823 43.3000569,43.7998889 38.6000507,38.9999011 C30.0000394,44.6998867 19.5000256,44.7998864 11.9000156,38.8999014 C8.50001116,36.299908 5.60000735,32.7999168 3.5000046,28.8999267 C2.80000105,27.6999298 2.20000289,26.2999333 1.70000223,24.9999366 C1.50000197,24.5999376 1.40000184,24.0999389 1.20000158,23.4999404 C1.00000131,22.9999417 0.800001051,22.3999432 0.800001051,21.7999447 C0.800001051,19.3999508 2.60000341,17.9999544 4.30000105,17.7999549 C5.30000105,17.6999551 7.90001038,17.7999549 8.80001156,21.3999457 C8.90001169,21.5999452 8.90001169,21.7999447 9.00001182,21.9999442 C9.00001182,21.9999442 9.00001182,22.099944 9.00001182,22.099944 C9.40001235,23.1999412 9.900013,24.2999384 10.5000138,25.2999358 C12.0000158,28.1999285 14.2000186,30.7999219 16.7000219,32.6999171 C22.2000292,36.9999062 28.7000377,35.9999087 33.7000443,32.7999168 C31.200041,28.399928 29.8000391,23.4999404 29.9000393,18.7999523 C30.0000394,12.3999686 32.8000431,4.69998808 38.800051,1.59999594 C41.7000548,0.199999493 44.6000586,0.199999493 47.200062,1.79999544 C51.1000671,4.0999896 53.0000696,9.19997667 53.1000697,12.999967 C53.30007,21.0999465 49.1000645,28.799927 44.5000584,33.9999138 C47.7000626,36.9999062 51.4000675,38.6999019 55.0000722,38.7999016 C59.6000783,38.8999014 64.700085,37.0999059 69.1000907,34.1999133 C66.9000879,31.6999196 65.1000855,28.6999272 63.9000839,25.4999353 C61.8000812,19.5999503 60.4000793,8.09997946 67.800089,2.29999417 C70.6000927,0.0999997464 73.8000969,-0.299999239 76.8001009,1.09999721 C82.8001087,3.89999011 86.4001135,13.6999653 86.5001136,17.8999546 C86.7001139,23.2999409 84.8001114,28.799927 81.1001065,33.5999148 C82.7001086,34.299913 84.3001107,34.7999118 86.0001129,34.9999112 C91.1001196,35.5999097 95.4001253,33.3999153 98.3001291,28.8999267 C99.5001307,27.0999313 101.900134,26.4999328 103.800136,27.6999298 C105.600139,28.8999267 106.200139,31.2999206 105.000138,33.1999158 C100.500132,40.2998978 93.2001224,43.7998889 85.1001118,42.8998912 C81.6001072,42.4998922 78.3001028,41.2998953 75.2000988,39.4998998 C69.5000913,43.7998889 62.1000816,46.4998821 55.3000726,46.4998821 Z M73.3000963,8.09997946 C73.2000961,8.09997946 73.0000959,8.19997921 72.7000955,8.3999787 C69.5000913,10.8999724 69.6000914,17.5999554 71.4000938,22.6999424 C72.2000948,24.8999369 73.4000964,26.8999318 74.9000984,28.6999272 C77.0001011,26.0999338 78.9001036,22.3999432 78.7001034,18.0999541 C78.6001032,15.3999609 75.8000995,9.19997667 73.5000965,8.09997946 C73.5000965,8.09997946 73.4000964,8.09997946 73.3000963,8.09997946 Z M42.9000563,8.3999787 C42.8000562,8.3999787 42.6000559,8.3999787 42.4000557,8.59997819 C39.600052,9.99997464 37.9000498,14.999962 37.8000496,18.9999518 C37.7000495,21.699945 38.4000504,24.5999376 39.7000521,27.2999308 C42.8000562,23.3999407 45.3000595,18.3999533 45.2000594,13.1999665 C45.2000594,11.3999787 44.200058,9.19997667 43.1000566,8.59997819 C43.1000566,8.49997845 43.0000565,8.3999787 42.9000563,8.3999787 Z"></path>
                        </g>
                    </g>
                    <g transform="translate(70.000092, 31.999919)" id="Path">
                        <path d="M5.1000067,45.7998839 C3.00000394,45.7998839 1.20000158,44.0998882 1.10000144,41.8998938 C0.900001182,29.0999262 0.800001051,15.9999594 0.800001051,4.79998783 C0.800001051,2.59999341 2.60000341,0.799997971 4.80000105,0.799997971 C7.00000919,0.799997971 8.80001156,2.59999341 8.80001156,4.79998783 C8.80001156,15.9999594 8.80001156,28.9999265 9.10001195,41.799894 C9.10001195,43.9998884 7.30000105,45.7998839 5.1000067,45.7998839 C5.1000067,45.7998839 5.1000067,45.7998839 5.1000067,45.7998839 Z"></path>
                    </g>
                    <g transform="translate(7.000009, 32.999916)" id="Shape">
                        <path d="M13.9000183,67.6998283 C9.80001287,67.6998283 6.00000788,65.5998337 3.40000447,61.6998435 C0.500000657,57.4998542 -0.100000131,52.6998664 1.40000184,47.8998785 C3.40000447,41.4998948 9.40001235,35.49991 16.2000213,32.9999163 C20.2000265,31.4999201 24.400032,30.8999216 28.6000376,30.6999222 C28.6000376,26.2999333 28.3000372,21.8999445 28.0000368,17.3999559 C27.7000364,13.0999668 27.400036,8.59997819 27.400036,4.0999896 C27.400036,1.89999518 29.2000383,0.0999997464 31.4000412,0.0999997464 C33.6000441,0.0999997464 35.4000465,1.89999518 35.4000465,4.0999896 C35.4000465,8.29997895 35.7000469,12.6999678 36.0000473,16.8999571 C36.3000477,21.4999455 36.6000481,26.1999336 36.6000481,30.8999216 C38.9000511,30.9999214 41.100054,31.1999209 43.2000567,31.3999204 L43.400057,31.3999204 C51.5000676,32.0999186 60.5000795,34.0999135 69.300091,36.9999062 C71.4000938,37.6999044 72.5000952,39.8998988 71.8000943,41.9998935 C71.1000934,44.0998882 68.9000905,45.1998854 66.8000877,44.4998872 C58.600077,41.799894 50.2000659,39.8998988 42.7000561,39.2999003 L42.5000558,39.2999003 C40.4000531,39.0999009 38.2000502,38.8999014 36.1000474,38.7999016 C35.4000465,44.1998879 34.1000448,49.699874 31.4000412,55.0998603 C28.5000374,60.9998453 21.8000286,67.1998296 14.9000196,67.6998283 C14.500019,67.6998283 14.2000186,67.6998283 13.9000183,67.6998283 Z M28.1000369,38.6999019 C24.9000327,38.8999014 21.8000286,39.3999001 18.9000248,40.3998976 C14.4000189,42.0998932 10.2000134,46.1998828 8.90001169,50.2998725 C8.10001064,52.7998661 8.40001103,55.0998603 9.900013,57.2998547 C11.6000152,59.6998486 13.2000173,59.8998481 14.2000186,59.7998484 C17.9000235,59.4998491 22.3000293,55.2998598 24.2000318,51.5998692 C26.3000345,47.3998798 27.5000361,43.0998907 28.1000369,38.6999019 Z"></path>
                    </g>
                    <g transform="translate(52.000068, 51.999868)" id="Shape">
                        <path d="M25.0000328,46.6998816 C14.7000193,46.6998816 5.1000067,37.8999039 2.10000276,28.399928 C0.900001182,24.6999374 -0.200000263,19.5999503 1.6000021,16.1999589 C2.60000341,14.2999637 5.00000657,13.5999655 7.00000919,14.599963 C8.90001169,15.5999604 9.60001261,17.9999544 8.60001129,19.8999495 C8.40001103,20.5999478 8.60001129,22.7999422 9.60001261,25.8999343 C11.9000156,33.1999158 19.7000259,40.0998983 27.2000357,38.4999024 C36.8000483,36.4999074 41.900055,24.8999369 42.5000558,3.79999036 C42.6000559,1.59999594 44.4000583,-0.0999997464 46.6000612,-8.89045781e-16 C48.8000641,0.0999997464 50.5000663,1.89999518 50.4000662,4.0999896 C49.7000653,29.2999257 42.5000558,43.4998897 28.900038,46.2998826 C27.6000362,46.5998818 26.3000345,46.6998816 25.0000328,46.6998816 Z"></path>
                    </g>
                </g>
            </g>
        </g>
    </g>
</svg>