<?xml version="1.0" encoding="UTF-8"?>
<svg width="96px" height="97px" viewBox="0 0 96 97" version="1.1" xmlns="http://www.w3.org/2000/svg" xmlns:xlink="http://www.w3.org/1999/xlink">
    <!-- Generator: Sketch 61.2 (89653) - https://sketch.com -->
    <title>Group</title>
    <desc>Created with Sketch.</desc>
    <g id="Page-1" stroke="none" stroke-width="1" fill="none" fill-rule="evenodd">
        <g id="Signs-(no-name)" transform="translate(-3522.000000, -113.000000)" fill="#000000" fill-rule="nonzero">
            <g id="Symbols" transform="translate(1465.058610, 0.718492)">
                <g id="Group" transform="translate(2056.848813, 112.276498)">
                    <g transform="translate(20.000026, 21.999944)" id="Shape">
                        <path d="M29.8000391,56.799856 C23.3000306,56.799856 17.0000223,54.9998605 11.9000156,51.3998697 C5.40000709,46.8998811 1.50000197,39.8998988 0.900001182,31.6999196 C3.66373598e-15,20.499948 7.00000919,8.3999787 17.500023,2.99999239 C26.1000343,-1.39999645 35.2000462,-0.499998732 42.6000559,5.5999858 C47.3000621,9.49997591 49.1000645,15.2999612 47.6000625,21.299946 C45.8000601,28.4999277 39.7000521,34.5999123 32.7000429,36.1999082 C29.8000391,36.8999064 26.5000348,36.9999062 23.0000302,36.4999074 C22.9000301,36.4999074 22.7000298,36.4999074 22.6000297,36.3999077 L22.5000295,36.3999077 C21.2000278,36.0999085 17.4000229,35.2999105 17.4000229,31.5999199 C17.4000229,29.3999254 19.2000252,27.59993 21.4000281,27.59993 C22.4000294,27.59993 23.2000305,27.8999293 23.9000314,28.4999277 C24.0000315,28.4999277 24.1000317,28.4999277 24.1000317,28.5999275 C24.2000318,28.5999275 24.2000318,28.5999275 24.3000319,28.5999275 C26.7000351,28.8999267 28.900038,28.799927 30.9000406,28.399928 C30.9000406,28.399928 31.0000407,28.399928 31.0000407,28.399928 C35.000046,27.4999303 38.800051,23.6999399 39.9000524,19.2999511 C40.4000531,17.0999566 40.5000532,13.9999645 37.5000492,11.4999708 C31.3000411,6.29998402 25.100033,7.69998047 21.1000277,9.79997515 C13.4000176,13.799965 8.20001077,22.7999422 8.80001156,30.8999216 C9.30001221,36.7999067 11.9000156,41.5998945 16.5000217,44.6998867 C22.0000289,48.5998768 29.8000391,49.699874 37.1000487,47.5998793 C46.0000604,45.1998854 53.6000704,38.4999024 58.4000767,28.9999265 C59.400078,26.9999315 61.8000812,26.2999333 63.7000837,27.199931 C65.6000862,28.1999285 66.4000872,30.5999224 65.500086,32.4999176 C59.7000784,44.0998882 50.3000661,52.1998676 39.2000515,55.19986 C36.1000474,56.399857 32.9000432,56.799856 29.8000391,56.799856 Z"></path>
                    </g>
                    <g id="Path">
                        <path d="M25.100033,96.2997558 C24.5000322,96.2997558 23.9000314,96.1997561 23.3000306,95.7997571 C10.2000134,88.8997746 2.10000276,75.699808 1.00000131,59.4998491 C-0.300000394,40.0998983 8.60001129,20.099949 23.1000303,9.8999749 L23.8000313,9.39997616 C28.900038,5.79998529 36.6000481,0.399998986 43.6000573,0.399998986 C45.8000601,0.399998986 47.6000625,2.19999442 47.6000625,4.39998884 C47.6000625,6.59998326 45.8000601,8.3999787 43.6000573,8.3999787 C39.1000514,8.3999787 32.4000426,13.0999668 28.4000373,15.9999594 L27.7000364,16.4999582 C15.4000202,25.1999361 7.80001024,42.3998925 8.90001169,59.1998499 C9.40001235,67.0998298 12.5000164,81.4997933 27.0000355,88.9997743 C28.900038,89.9997718 29.700039,92.3997657 28.7000377,94.2997609 C27.9000366,95.5997576 26.5000348,96.2997558 25.100033,96.2997558 Z"></path>
                    </g>
                    <g transform="translate(61.000080, 4.999987)" id="Shape">
                        <path d="M25.100033,28.8999267 C23.5000309,28.8999267 22.0000289,27.8999293 21.4000281,26.2999333 C19.3000253,20.499948 15.5000204,15.6999602 9.70001274,11.5999706 C8.20001077,10.5999731 6.50000854,9.6999754 4.8000063,9.19997667 C4.70000617,9.19997667 4.50000591,9.09997692 4.40000578,8.99997718 C4.40000578,8.99997718 4.30000565,8.99997718 4.30000565,8.99997718 C4.20000552,8.99997718 4.20000552,8.99997718 4.10000013,8.99997718 C1.9000025,8.99997718 0.100000131,7.19998174 0.100000131,4.99998732 C0.100000131,3.39999138 1.10000013,1.99999493 2.50000328,1.2999967 C3.90000512,0.699998225 5.90000775,0.999997464 7.30000959,1.59999594 C9.60001261,2.39999391 12.0000158,3.49999112 14.2000186,4.99998732 C21.4000281,10.0999744 26.2000344,16.0999592 28.8000378,23.4999404 C29.5000387,25.5999351 28.5000374,27.7999295 26.4000347,28.5999275 C26.0000341,28.799927 25.5000335,28.8999267 25.100033,28.8999267 Z"></path>
                    </g>
                    <g transform="translate(55.000072, 67.999828)" id="Path">
                        <path d="M6.30000827,28.799927 C5.90000775,28.799927 5.30000696,28.6999272 4.00000525,28.399928 C3.90000512,28.399928 3.90000512,28.399928 3.80000499,28.399928 L4.40000578,26.2999333 L3.70000486,28.399928 C1.6000021,27.7999295 0.400000525,25.4999353 1.10000144,23.4999404 C1.70000223,21.3999457 3.90000512,20.1999488 6.00000788,20.899947 C6.10000801,20.899947 6.30000827,20.9999467 6.50000854,20.9999467 C7.20000946,20.9999467 7.90001038,20.9999467 8.50001116,20.899947 C8.50001116,20.899947 8.60001129,20.899947 8.60001129,20.899947 C11.3000148,20.499948 14.1000185,19.9999493 16.6000218,18.8999521 C24.0000315,15.5999604 29.700039,8.19997921 33.8000444,2.09999467 C35.000046,0.299999239 37.5000492,-0.199999493 39.3000516,1.09999721 C41.100054,2.29999417 41.6000546,4.79998783 40.3000529,6.59998326 C35.6000468,13.4999658 29.0000381,21.9999442 19.7000259,26.1999336 C16.3000214,27.6999298 12.8000168,28.2999282 9.80001287,28.799927 C8.60001129,28.799927 7.40000972,28.799927 6.30000827,28.799927 Z"></path>
                    </g>
                </g>
            </g>
        </g>
    </g>
</svg>