<?xml version="1.0" encoding="UTF-8"?>
<svg width="99px" height="94px" viewBox="0 0 99 94" version="1.1" xmlns="http://www.w3.org/2000/svg" xmlns:xlink="http://www.w3.org/1999/xlink">
    <!-- Generator: Sketch 61.2 (89653) - https://sketch.com -->
    <title>Group</title>
    <desc>Created with Sketch.</desc>
    <g id="Page-1" stroke="none" stroke-width="1" fill="none" fill-rule="evenodd">
        <g id="Signs-(no-name)" transform="translate(-1733.000000, -113.000000)" fill="#000000" fill-rule="nonzero">
            <g id="Symbols" transform="translate(1465.058610, 0.718492)">
                <g id="Group" transform="translate(267.846464, 112.276498)">
                    <g id="Path">
                        <path d="M4.30000565,57.6998537 C2.20000289,57.6998537 0.400000525,55.999858 0.400000525,53.8998633 C0.300000394,51.6998689 2.00000263,49.8998735 4.20000552,49.7998737 L4.40000578,49.7998737 C12.8000168,49.4998745 21.6000284,49.1998752 29.1000382,46.4998821 C45.5000598,40.6998968 53.2000699,26.6999323 51.800068,4.89998757 C51.7000679,2.69999315 53.30007,0.799997971 55.5000729,0.699998225 C57.7000758,0.599998479 59.6000783,2.19999442 59.7000784,4.39998884 C61.3000805,29.7999244 51.7000679,46.8998811 31.8000418,53.9998631 C23.1000303,57.0998552 13.4000176,57.4998542 4.70000617,57.6998537 L4.50000591,57.6998537 C4.30000565,57.6998537 4.30000565,57.6998537 4.30000565,57.6998537 Z"></path>
                    </g>
                    <g transform="translate(29.000038, 23.999939)" id="Shape">
                        <path d="M19.3000253,69.1998245 C17.3000227,69.1998245 15.20002,68.7998255 13.3000175,67.8998278 C11.0000144,66.7998306 8.10001064,64.2998369 7.20000946,59.1998499 C6.90000906,57.3998544 6.80000893,55.4998593 7.10000932,53.3998646 C8.10001064,45.6998841 12.5000164,37.9999036 20.4000268,29.9999239 C22.3000293,28.0999287 24.400032,26.1999336 26.6000349,24.2999384 C20.5000269,18.6999526 11.5000151,15.5999604 3.40000447,13.1999665 C1.30000171,12.599968 0.100000131,10.3999736 0.700000919,8.29997895 C1.30000171,6.19998428 3.5000046,4.99998732 5.60000735,5.5999858 C15.0000197,8.29997895 25.5000335,12.0999693 32.8000431,19.2999511 C34.1000448,18.2999536 35.4000465,17.2999561 36.8000483,16.3999584 C44.6000586,10.8999724 53.5000703,5.79998529 64.1000842,0.699998225 C66.1000868,-0.199999493 68.4000898,0.599998479 69.4000911,2.49999366 C70.3000923,4.49998859 69.5000913,6.79998276 67.6000888,7.79998022 C57.4000754,12.6999678 48.9000642,17.5999554 41.5000545,22.7999422 C40.3000529,23.6999399 39.0000512,24.5999376 37.9000498,25.3999356 C42.3000556,32.3999178 44.3000582,40.8998963 42.9000563,48.499877 C41.5000545,56.4998567 36.7000482,62.9998402 29.3000385,66.6998309 C27.7000364,67.3998291 23.7000311,69.1998245 19.3000253,69.1998245 Z M31.6000415,30.3999229 C29.6000389,32.0999186 27.7000364,33.7999143 26.0000341,35.5999097 C19.3000253,42.2998927 15.7000206,48.499877 14.9000196,54.4998618 C14.7000193,55.6998588 14.7000193,56.799856 14.9000196,57.7998534 C15.3000201,59.8998481 16.1000211,60.4998466 16.8000221,60.7998458 C18.7000246,61.7998433 22.4000294,61.2998446 25.7000338,59.5998489 C32.2000423,56.2998572 34.4000452,50.9998707 35.1000461,47.1998803 C36.0000473,41.6998943 34.7000456,35.5999097 31.6000415,30.3999229 Z"></path>
                    </g>
                </g>
            </g>
        </g>
    </g>
</svg>