<?xml version="1.0" encoding="UTF-8"?>
<svg width="105px" height="88px" viewBox="0 0 105 88" version="1.1" xmlns="http://www.w3.org/2000/svg" xmlns:xlink="http://www.w3.org/1999/xlink">
    <!-- Generator: Sketch 61.2 (89653) - https://sketch.com -->
    <title>Group</title>
    <desc>Created with Sketch.</desc>
    <g id="Page-1" stroke="none" stroke-width="1" fill="none" fill-rule="evenodd">
        <g id="Signs-(no-name)" transform="translate(-4491.000000, -492.000000)" fill="#000000" fill-rule="nonzero">
            <g id="Symbols" transform="translate(1465.058610, 0.718492)">
                <g id="Group" transform="translate(3024.850084, 490.275539)">
                    <g transform="translate(54.423071, 17.659955) scale(-1, 1) rotate(-180.000000) translate(-54.423071, -17.659955) translate(40.423053, 0.659998)" id="Shape">
                        <g>
                            <path d="M4.10000538,0.499998732 C2.00000263,0.499998732 0.200000263,2.19999442 0.200000263,4.2999891 C-0.300000394,15.2999612 3.70000486,23.6999399 11.8000155,29.199926 C13.700018,30.3999229 16.5000217,31.9999189 19.7000259,32.8999166 C20.2000265,33.0999161 20.7000272,33.0999161 21.6000284,33.2999156 C21.9000288,33.2999156 22.2000292,33.3999153 22.5000295,33.3999153 C23.4000307,33.6999145 24.5000322,33.5999148 25.4000334,33.1999158 C27.400036,32.1999183 28.1000369,29.7999244 27.2000357,27.8999293 C26.3000345,25.9999341 24.6000323,25.7999346 22.8000299,25.4999353 C22.5000295,25.4999353 22.2000292,25.3999356 22.0000289,25.3999356 C20.2000265,24.8999369 18.2000239,23.8999394 16.2000213,22.6999424 C10.5000138,18.8999521 7.80001024,12.999967 8.10001064,4.79998783 C8.20001077,2.59999341 6.50000854,0.799997971 4.30000565,0.699998225 C4.20000552,0.499998732 4.10000538,0.499998732 4.10000538,0.499998732 Z M20.2000265,31.5999199 L20.2000265,31.5999199 C20.4000268,31.9999189 20.7000272,32.3999178 21.1000277,32.5999199 C20.8000273,32.3999178 20.4000268,32.0999199 20.2000265,31.5999199 Z"></path>
                        </g>
                    </g>
                    <g transform="translate(89.557118, 24.159939) scale(-1, 1) rotate(90.000000) translate(-89.557118, -24.159939) translate(75.557099, 7.159982)" id="Shape">
                        <g>
                            <path d="M27.5000361,29.2999257 C27.5000361,28.6999272 27.400036,28.0999287 27.1000356,27.4999303 C26.2000344,25.5999351 24.5000322,25.3999356 22.7000298,25.0999364 C22.4000294,25.0999364 22.100029,24.9999366 21.9000288,24.9999366 C20.1000264,24.4999379 18.1000238,23.4999404 16.1000211,22.2999435 C10.4000137,18.4999531 7.70001011,12.599968 8.00001051,4.39998884 C8.10001064,2.19999442 6.40000841,0.399998986 4.20000552,0.299999239 C2.00000263,0.199999493 0.200000263,1.89999518 0.100000131,4.0999896 C-0.400000525,15.0999617 3.60000473,23.4999404 11.7000154,28.9999265 C13.6000179,30.1999234 16.4000215,31.7999194 19.6000257,32.6999171 C20.1000264,32.8999166 20.6000271,32.8999166 21.5000282,33.0999161 C21.8000286,33.0999161 22.2000292,33.1999158 22.4000294,33.1999158 C23.3000306,33.4999151 24.400032,33.3999153 25.3000332,32.9999163 C26.7000351,32.0999186 27.5000361,30.6999222 27.5000361,29.2999257 Z M20.1000264,31.1999209 C20.3000267,31.5999199 20.6000271,31.9999189 21.0000276,32.1999209 C20.7000272,31.9999189 20.4000268,31.6999209 20.1000264,31.1999209 L20.1000264,31.1999209 Z"></path>
                        </g>
                    </g>
                    <g transform="translate(31.396311, 57.082106) rotate(-165.000005) translate(-31.396311, -57.082106) translate(7.896276, 23.582185)" id="Shape">
                        <g>
                            <path d="M3.00000441,6.89998358 C3.10000456,6.89998358 3.30000485,6.79998382 3.400005,6.79998382 C4.9000072,6.59998429 7.00001029,6.99998334 8.1000119,10.2999755 C8.1000119,10.3999753 8.20001205,10.499975 8.20001205,10.5999748 C8.70001278,11.7999719 9.10001337,13.1999686 9.40001381,14.299966 L9.70001425,15.2999636 C10.5000154,18.2999565 11.3000166,21.4999488 12.0000176,24.5999415 C13.0000191,29.8999288 14.7000216,34.9999167 16.4000241,40.3999039 C17.5000257,43.7998958 18.6000273,47.2998874 19.6000288,50.8998789 C20.2000297,49.4998822 20.7000304,47.9998858 21.3000313,46.5998891 C28.1000413,29.39993 33.7000495,15.4999631 39.1000575,2.79999334 C40.0000588,0.799998096 42.3000622,-0.099999762 44.3000651,0.699998334 C46.300068,1.59999619 47.2000694,3.89999072 46.4000682,5.89998596 C41.0000602,18.499956 35.400052,32.3999229 28.600042,49.4998822 C27.900041,51.1998782 27.3000401,52.7998744 26.6000391,54.4998703 C25.8000379,56.5998653 25.0000367,58.5998606 24.2000356,60.6998556 L24.2000356,60.7998553 C23.5000345,62.8998503 22.2000326,66.799841 18.6000273,66.799841 C14.5000213,66.799841 13.8000203,62.4998513 12.7000187,55.9998667 C12.6000185,55.4998679 12.6000185,55.0998689 12.5000184,54.8998694 C11.5000169,50.8998789 10.200015,46.7998886 8.90001308,42.7998982 C7.20001058,37.399911 5.40000793,31.8999241 4.30000632,26.0999379 C3.70000544,23.1999448 3.00000441,20.2999517 2.20000323,17.2999588 L2.00000294,16.399961 C1.80000264,15.4999631 1.5000022,14.4999655 1.10000162,13.6999674 C1.00000147,13.3999681 0.900001322,13.0999688 0.800001176,12.7999695 C0.800001176,12.7999695 0.800001176,12.6999698 0.800001176,12.6999698 C0.500000735,12.199971 0.400000588,11.4999726 0.400000588,10.8999741 C0.100000147,8.99997858 1.30000191,7.39998239 3.00000441,6.89998358 Z M8.20001205,10.5999748 C8.20001205,10.4999762 8.1000119,10.3999753 8.1000119,10.3999753 C8.1000119,10.3999753 8.1000119,10.4999762 8.20001205,10.5999748 Z"></path>
                        </g>
                    </g>
                    <g transform="translate(75.323936, 57.270038) rotate(14.999995) translate(-75.323936, -57.270038) translate(51.823901, 23.270119)" id="Shape">
                        <g>
                            <path d="M19.9000292,66.8998408 C19.5000287,66.9998406 19.1000281,67.0998403 18.7000275,67.0998403 C14.6000215,67.0998403 13.9000204,62.7998506 12.8000188,56.299866 C12.7000187,55.7998672 12.7000187,55.3998682 12.6000185,55.1998686 C11.600017,51.1998782 10.3000151,47.0998879 9.00001322,43.0998974 C7.30001073,37.6999103 5.50000808,32.1999234 4.40000059,26.3999372 C3.80000558,23.4999441 3.10000456,20.6999507 2.30000338,17.6999579 L2.00000294,16.6999603 C1.80000264,15.7999624 1.5000022,14.7999648 1.10000162,13.9999667 C1.00000147,13.6999674 0.900000588,13.3999681 0.800001176,13.0999688 C0.800001176,13.0999688 0.800001176,12.9999691 0.800001176,12.9999691 C0.500000735,12.4999703 0.400000588,11.7999719 0.400000588,11.1999733 C0.400000588,9.29997787 1.80000264,7.59998191 3.80000558,7.29998263 C5.10000749,7.0999831 7.30001073,7.29998263 8.50001249,10.7999743 C8.50001249,10.8999741 8.60001264,10.9999738 8.60001264,11.0999736 C9.10001337,12.3999705 9.50001396,13.6999674 9.8000144,14.7999648 L10.1000148,15.7999624 C10.900016,18.7999553 11.7000172,21.8999479 12.3000181,25.0999403 C13.3000195,30.3999277 15.000022,35.4999155 16.7000245,40.8999027 C17.8000262,44.2998946 18.9000278,47.7998863 19.9000292,51.3998777 C20.5000301,49.999881 21.0000309,48.4998846 21.6000317,47.0998879 C28.4000417,29.8999288 34.00005,15.9999619 39.4000579,3.29999215 C40.3000592,1.29999691 42.6000626,0.399999048 44.6000655,1.19999714 C46.6000685,2.099995 47.5000698,4.39998953 46.7000686,6.39998477 C41.3000607,18.9999548 35.7000525,32.8999217 28.9000425,49.999881 C28.2000414,51.699877 27.6000406,53.2998732 26.9000395,54.9998691 C26.1000384,57.0998641 25.3000372,59.0998594 24.500036,61.1998544 L24.500036,61.2998541 C23.7000348,62.8998503 22.6000332,66.0998427 19.9000292,66.8998408 Z M8.3000122,10.5999748 C8.3000122,10.6999757 8.40001234,10.7999743 8.40001234,10.7999743 C8.40001234,10.7999743 8.40001234,10.6999757 8.3000122,10.5999748 Z"></path>
                        </g>
                    </g>
                </g>
            </g>
        </g>
    </g>
</svg>