<?xml version="1.0" encoding="UTF-8"?>
<svg width="91px" height="62px" viewBox="0 0 91 62" version="1.1" xmlns="http://www.w3.org/2000/svg" xmlns:xlink="http://www.w3.org/1999/xlink">
    <!-- Generator: Sketch 61.2 (89653) - https://sketch.com -->
    <title>Group</title>
    <desc>Created with Sketch.</desc>
    <g id="Page-1" stroke="none" stroke-width="1" fill="none" fill-rule="evenodd">
        <g id="Signs-(no-name)" transform="translate(-4336.000000, -314.000000)" fill="#000000" fill-rule="nonzero">
            <g id="Symbols" transform="translate(1465.058610, 0.718492)">
                <g id="Group" transform="translate(2869.849881, 305.276008)">
                    <g transform="translate(40.364053, 26.834032)" id="Path">
                        <g>
                            <path d="M17.4000229,43.0998907 C15.6000205,43.0998907 13.700018,43.0998907 12.0000158,43.0998907 C9.10001195,43.0998907 6.30000039,43.0998907 4.40000578,43.0998907 C4.40000578,43.0998907 4.40000578,43.0998907 4.30000039,43.0998907 C2.10000276,43.0998907 0.400000525,41.399895 0.300000394,39.1999006 C0.300000394,36.9999062 2.00000263,35.1999107 4.20000552,35.1999107 C6.20000814,35.1999107 9.00001182,35.1999107 12.0000158,35.1999107 C17.3000227,35.1999107 23.4000307,35.2999105 26.8000352,34.9999112 C26.9000353,34.9999112 27.0000355,34.9999112 27.1000356,34.9999112 C27.2000357,34.9999112 27.5000361,34.9999112 28.0000368,34.9999112 C28.200037,34.9999112 28.7000377,34.9999112 29.1000382,34.9999112 C29.9000393,31.7999194 29.8000391,26.8999318 29.700039,22.8999419 C29.6000389,20.099949 29.5000387,17.4999556 29.700039,15.2999612 C29.9000393,12.7999675 30.0000394,10.4999734 30.1000395,8.29997895 C30.1000395,8.19997921 30.0000394,7.69998047 30.0000394,7.39998124 C29.8000391,5.49998605 29.4000386,2.59999341 32.2000423,1.2999967 C33.8000444,0.499998732 35.7000469,0.899997718 37.0000486,2.19999442 C38.2000502,3.39999138 38.4000504,5.09998707 37.9000498,6.49998352 C38.0000499,7.29998149 38.10005,7.99997971 38.10005,8.69997794 C38.0000499,10.9999721 37.9000498,13.399966 37.7000495,15.9999594 C37.6000494,17.7999549 37.6000494,20.1999488 37.7000495,22.6999424 C37.9000498,28.9999265 38.10005,36.1999082 35.3000464,40.8998963 C35.3000464,40.999896 35.2000462,40.999896 35.2000462,41.0998958 C33.9000445,43.0998907 32.2000423,43.0998907 27.8000365,42.8998912 C27.6000362,42.8998912 27.400036,42.8998912 27.3000359,42.8998912 C24.7000324,43.0998907 21.2000278,43.0998907 17.4000229,43.0998907 Z"></path>
                        </g>
                    </g>
                    <g transform="translate(72.550095, 32.299918) rotate(-180.000000) translate(-72.550095, -32.299918) translate(53.050070, 10.799973)" id="Shape">
                        <g>
                            <path d="M34.1000448,0 C35.2000462,0 36.3000477,0.399998986 37.1000487,1.2999967 C38.3000503,2.5 38.5000506,4.19998935 38.0000499,5.5999858 C38.10005,6.39998377 38.2000502,7.099982 38.2000502,7.79998022 C38.10005,10.0999744 38.0000499,12.4999683 37.8000496,15.0999617 C37.7000495,16.8999571 37.7000495,19.2999511 37.8000496,21.7999447 C38.0000499,28.0999287 38.2000502,35.2999105 35.4000465,39.9998986 C35.4000465,40.0998983 35.3000464,40.0998983 35.3000464,40.1998981 C34.0000447,42.199893 32.3000424,42.199893 27.9000366,41.9998935 C27.7000364,41.9998935 27.5000361,41.9998935 27.400036,41.9998935 C24.0000315,42.199893 20.6000271,42.199893 17.4000229,42.2998927 C15.3000201,42.2998927 13.0000171,42.2998927 10.9000143,42.3998925 C10.4000137,42.3998925 9.900013,42.3998925 9.20001208,42.2998927 C8.70001143,42.2998927 7.70001011,42.199893 7.00000919,42.199893 C6.40000118,42.599892 5.70000749,42.7998915 4.90000118,42.7998915 C2.70000355,42.7998915 0.900001182,40.999896 0.900001182,38.7999016 C0.900001182,37.5999047 1.40000118,36.4999074 2.20000289,35.6999095 C3.90000118,34.0999135 6.50000854,34.1999133 9.50001248,34.299913 C9.900013,34.299913 10.3000135,34.299913 10.6000139,34.299913 C12.8000168,34.1999133 15.1000198,34.1999133 17.3000227,34.1999133 C20.6000271,34.1999133 23.8000313,34.1999133 27.0000355,33.899914 C27.1000356,33.899914 27.2000357,33.899914 27.3000359,33.899914 C27.400036,33.899914 27.7000364,33.899914 28.200037,33.899914 C28.4000373,33.899914 28.900038,33.899914 29.3000385,33.899914 C30.1000395,30.6999222 30.0000394,25.7999346 29.9000393,21.7999447 C29.8000391,18.9999518 29.700039,16.3999584 29.9000393,14.199964 C30.1000395,11.6999703 30.2000397,9.39997616 30.3000398,7.19998174 C30.3000398,7.099982 30.2000397,6.59998326 30.2000397,6.29998402 C30.0000394,4.39998884 29.6000389,1.5 32.4000426,0.199999493 C32.9000432,0.199999493 33.500044,0 34.1000448,0 Z"></path>
                        </g>
                    </g>
                    <g transform="translate(32.028329, 38.815683) rotate(-165.000005) translate(-32.028329, -38.815683) translate(8.028293, 5.315762)" id="Shape">
                        <g>
                            <path d="M3.90000573,6.59998429 C4.00000588,6.59998429 4.20000617,6.49998453 4.30000632,6.49998453 C5.60000823,6.29998501 7.80001146,6.49998453 9.00001322,9.9999762 C9.00001322,10.099976 9.10001337,10.1999757 9.10001337,10.2999755 C9.60001411,11.5999724 10.0000147,12.8999693 10.3000151,13.9999667 L10.6000156,14.9999643 C11.4000168,17.9999572 12.2000179,21.0999498 12.8000188,24.2999422 C13.8000203,29.5999296 15.5000228,34.6999174 17.2000253,40.0999046 C18.3000269,43.4998965 19.4000285,46.9998882 20.40003,50.5998796 C21.0000309,49.1998829 21.5000316,47.6998865 22.1000325,46.2998898 C28.9000425,29.0999308 34.5000507,15.1999638 39.9000586,2.49999405 C40.80006,0.49999881 43.1000633,-0.399999048 45.1000663,0.399999048 C47.1000692,1.29999691 48.0000705,3.59999143 47.2000694,5.59998667 C41.8000614,18.1999567 36.2000532,32.0999236 29.4000432,49.1998829 C28.7000422,50.8998789 28.1000413,52.4998751 27.4000403,54.199871 C26.6000391,56.299866 25.8000379,58.2998613 24.9000366,60.3998563 L24.9000366,60.499856 C24.2000356,62.599851 22.9000336,66.4998418 19.3000284,66.4998418 C15.2000223,66.4998418 14.5000213,62.199852 13.4000197,55.7998672 C13.3000195,55.2998684 13.3000195,54.8998694 13.2000194,54.6998698 C12.2000179,50.6998794 10.900016,46.5998891 9.60001411,42.5998986 C7.90001161,37.1999115 6.10000896,31.6999246 5.00000735,25.8999384 C4.40000647,22.9999453 3.70000544,20.1999519 2.90000426,17.1999591 L2.60000382,16.1999614 C2.40000353,15.2999636 2.10000309,14.299966 1.7000025,13.4999679 C1.60000235,13.1999686 1.5000022,12.9999691 1.40000206,12.59997 C1.40000206,12.59997 1.40000206,12.4999703 1.40000206,12.4999703 C1.10000162,11.9999714 1.00000147,11.2999731 1.00000147,10.6999745 C0.900001322,8.6999793 2.10000309,7.0999831 3.90000573,6.59998429 Z M9.00001322,10.2999755 C9.00001322,10.1999769 8.90001308,10.099976 8.90001308,10.099976 C8.90001308,10.099976 9.00001322,10.1999769 9.00001322,10.2999755 Z"></path>
                        </g>
                    </g>
                </g>
            </g>
        </g>
    </g>
</svg>