<?xml version="1.0" encoding="UTF-8"?>
<svg width="92px" height="96px" viewBox="0 0 92 96" version="1.1" xmlns="http://www.w3.org/2000/svg" xmlns:xlink="http://www.w3.org/1999/xlink">
    <!-- Generator: Sketch 61.2 (89653) - https://sketch.com -->
    <title>Group</title>
    <desc>Created with Sketch.</desc>
    <g id="Page-1" stroke="none" stroke-width="1" fill="none" fill-rule="evenodd">
        <g id="Signs-(no-name)" transform="translate(-4979.000000, -114.000000)" fill="#000000" fill-rule="nonzero">
            <g id="Symbols" transform="translate(1465.058610, 0.718492)">
                <g id="Group" transform="translate(3513.850727, 113.276495)">
                    <g id="Shape">
                        <path d="M28.3000372,95.4997578 C23.600031,95.4997578 19.1000251,94.7997596 14.9000196,92.7997647 C10.0000131,90.5997703 6.50000854,85.9997819 5.50000722,80.5997956 C4.50000591,75.4998085 6.00000788,70.4998212 9.60001261,66.7998306 C14.8000194,61.3998443 22.0000289,59.6998486 28.900038,58.0998527 C33.1000435,57.0998552 37.1000487,56.1998575 40.2000528,54.4998618 C49.3000647,49.5998742 55.9000734,38.3999026 55.9000734,27.999929 C55.9000734,22.4999429 54.100071,14.999962 45.6000599,10.2999739 C35.2000462,4.59998834 21.2000278,9.39997616 13.6000179,17.1999564 C10.3000135,20.499948 7.40000972,25.2999358 8.60001129,27.59993 C9.40001235,29.199926 13.9000183,30.1999234 21.8000286,28.5999275 C21.9000288,28.5999275 21.9000288,28.5999275 22.0000289,28.5999275 L22.3000293,28.5999275 C24.1000317,28.2999282 25.100033,28.0999287 25.6000336,27.999929 C26.3000345,27.199931 27.400036,26.5999325 28.6000376,26.5999325 C30.8000404,26.5999325 32.6000428,28.399928 32.6000428,30.5999224 C32.6000428,35.1999107 26.9000353,35.9999087 23.5000309,36.4999074 L23.4000307,36.4999074 C9.00001182,39.3999001 3.60000473,35.2999105 1.6000021,31.2999206 C-2.50000328,23.1999412 5.50000722,14.2999637 8.00001051,11.7999701 C20.7000272,-1.2999967 38.9000511,-2.29999417 49.500065,3.49999112 C58.8000772,8.59997819 64.0000841,17.3999559 63.9000839,28.1999285 C63.9000839,41.5998945 55.7000732,55.3998595 44.0000578,61.6998435 C39.9000524,63.899838 35.2000462,64.9998352 30.8000404,65.9998326 C24.7000324,67.3998291 18.9000248,68.7998255 15.4000202,72.4998162 C13.0000171,74.8998101 13.1000172,77.7998027 13.4000176,79.2997989 C13.9000183,82.1997916 15.9000209,84.6997852 18.4000242,85.7997824 C24.6000323,88.7997748 32.7000429,87.7997774 40.5000532,86.4997807 C43.5000571,86.0997817 46.5000611,85.4997832 49.6000651,84.9997845 C58.2000764,83.3997885 67.1000881,81.7997926 75.9000997,82.4997908 C78.1001026,82.6997903 79.7001047,84.5997855 79.5001044,86.6997801 C79.3001041,88.8997746 77.5001018,90.4997705 75.3000989,90.299771 C67.5000886,89.6997725 59.1000776,91.1997687 51.000067,92.6997649 C47.9000629,93.2997634 44.7000587,93.7997621 41.6000546,94.2997609 C37.2000489,94.7997596 32.7000429,95.4997578 28.3000372,95.4997578 Z"></path>
                    </g>
                    <g transform="translate(41.000054, 22.999942)" id="Path">
                        <path d="M44.8000588,52.2998674 C44.6000586,52.2998674 44.5000584,52.2998674 44.3000582,52.2998674 C42.1000553,51.9998681 40.6000533,50.099873 40.9000537,47.8998785 L41.0000538,46.8998811 C42.6000559,33.9999138 44.8000588,16.3999584 33.3000437,9.8999749 C29.0000381,7.49998098 22.6000297,7.79998022 16.9000222,8.19997921 C15.9000209,8.29997895 14.8000194,8.29997895 13.8000181,8.3999787 C13.700018,8.3999787 13.700018,8.3999787 13.6000179,8.3999787 C12.5000164,8.3999787 8.10001064,8.99997718 6.30000827,9.19997667 C4.30000565,9.49997591 0.900001182,9.8999749 0.100000131,6.39998377 C-0.300000394,4.39998884 0.800001051,2.39999391 2.80000368,1.79999544 C3.2000042,1.69999569 3.5000046,1.59999594 3.90000512,1.59999594 C4.20000552,1.59999594 4.70000617,1.4999962 5.40000709,1.39999645 C8.90001169,0.999997464 12.1000159,0.599998479 13.700018,0.499998732 C14.6000192,0.499998732 15.6000205,0.399998986 16.6000218,0.299999239 C23.0000302,-0.0999997464 31.1000408,-0.499998732 37.300049,3.09999214 C53.30007,12.1999691 50.7000666,33.6999145 48.9000642,47.9998783 L48.8000641,48.9998757 C48.5000637,50.8998709 46.8000615,52.2998674 44.8000588,52.2998674 Z"></path>
                    </g>
                </g>
            </g>
        </g>
    </g>
</svg>