<?xml version="1.0" encoding="UTF-8"?>
<svg width="85px" height="82px" viewBox="0 0 85 82" version="1.1" xmlns="http://www.w3.org/2000/svg" xmlns:xlink="http://www.w3.org/1999/xlink">
    <!-- Generator: Sketch 61.2 (89653) - https://sketch.com -->
    <title>Group</title>
    <desc>Created with Sketch.</desc>
    <g id="Page-1" stroke="none" stroke-width="1" fill="none" fill-rule="evenodd">
        <g id="Signs-(no-name)" transform="translate(-2395.000000, -493.000000)" fill="#000000" fill-rule="nonzero">
            <g id="Symbols" transform="translate(1465.058610, 0.718492)">
                <g id="Group" transform="translate(929.847333, 491.275537)">
                    <g transform="translate(0.000000, 4.742463)" id="Shape">
                        <g>
                            <path d="M23.1000303,77.9998022 C22.9000301,77.9998022 22.7000298,77.9998022 22.5000295,77.9998022 C14.6000192,77.7998027 8.70001143,73.0998146 7.50000985,66.0998324 C6.20000814,58.6998511 10.7000141,51.3998697 18.300024,48.499877 C24.6000323,46.0998831 30.9000406,46.1998828 37.1000487,46.6998816 C37.5000492,43.7998889 37.8000496,40.6998968 38.10005,37.2999054 C38.2000502,36.0999085 38.3000503,34.8999115 38.4000504,33.899914 C36.2000475,35.899909 33.7000443,37.3999052 30.7000403,38.2999029 C24.0000315,40.2998978 17.8000234,39.3999001 12.7000167,35.6999095 C4.10000538,29.2999257 0.300000394,15.7999599 0.300000394,5.09998707 C0.300000394,2.89999265 2.10000276,1.09999721 4.30000039,1.09999721 C6.50000854,1.09999721 8.3000109,2.89999265 8.3000109,5.09998707 C8.3000109,13.4999658 11.2000147,24.5999376 17.500023,29.2999257 C20.6000271,31.5999199 24.2000318,31.9999189 28.5000374,30.6999222 C35.3000464,28.5999275 37.5000492,21.299946 38.2000502,15.5999604 C38.5000506,13.1999665 38.6000507,10.7999726 38.6000507,7.99997971 C38.6000507,7.79998022 38.5000506,7.29998149 38.5000506,6.8999825 C38.3000503,4.79998783 38.0000499,1.89999518 40.7000535,0.599998479 C42.3000556,-0.199999493 44.1000579,0.0999997464 45.5000598,1.39999645 C47.3000621,3.19999189 47.3000621,5.99998479 47.3000621,7.99997971 C47.3000621,8.19997921 47.3000621,8.49997845 47.3000621,8.59997819 C47.5000624,12.7999675 47.5000624,17.3999559 47.200062,23.3999407 C47.0000617,27.0999313 46.7000613,30.7999219 46.3000608,34.699912 C46.2000607,35.6999095 46.1000605,36.7999067 46.0000604,37.9999036 C45.8000601,40.7998965 45.5000598,43.9998884 45.1000592,47.3998798 C46.2000607,47.4998796 47.3000621,47.4998796 48.4000636,47.5998793 C53.2000699,47.7998788 57.900076,47.3998798 63.0000827,46.9998808 C68.0000893,46.5998818 73.2000961,46.1998828 78.400103,46.3998823 C80.6001059,46.4998821 82.3001081,48.2998775 82.200108,50.4998719 C82.1001078,52.6998664 80.3001055,54.3998621 78.1001026,54.2998623 C73.4000964,54.0998628 68.6000901,54.4998618 63.7000837,54.8998608 C58.7000771,55.2998598 53.5000703,55.6998588 48.2000633,55.4998593 C46.8000615,55.4998593 45.3000595,55.3998595 43.9000577,55.19986 C43.400057,57.5998539 42.7000561,59.9998479 41.900055,62.299842 C37.2000489,75.0998096 29.2000383,77.9998022 23.1000303,77.9998022 Z M31.0000407,54.1998626 C27.6000362,54.1998626 24.3000319,54.5998615 21.1000277,55.6998626 C16.3000214,57.4998542 14.7000193,61.499844 15.20002,64.5998362 C15.8000208,67.7998281 18.5000243,69.799823 22.6000297,69.9998225 C29.6000389,70.199822 33.4000439,64.2998369 35.6000468,54.3998621 C34.1000448,54.2998623 32.5000427,54.1998626 31.0000407,54.1998626 Z"></path>
                        </g>
                    </g>
                    <g transform="translate(39.000051, 0.742473)" id="Path">
                        <g>
                            <path d="M42.2000554,37.7999041 C42.1000553,37.7999041 42.1000553,37.7999041 42.0000552,37.7999041 C39.8000523,37.6999044 38.10005,35.899909 38.2000502,33.6999145 C38.5000506,27.6999298 37.4000491,21.5999452 35.2000462,17.0999566 C32.7000429,11.8999698 28.900038,9.09997692 23.9000314,8.69997794 C18.5000243,8.29997895 13.8000181,12.599968 11.2000147,16.7999574 C10.0000131,18.7999523 9.10001195,20.6999475 8.40001103,22.3999432 C8.40001103,22.4999429 8.40001103,22.5999427 8.3000109,22.5999427 C8.3000109,22.6999424 8.20001077,22.9999417 8.10001064,23.1999412 C8.10001064,25.3999356 6.30000827,27.199931 4.10000538,27.199931 C2.90000381,27.199931 1.70000223,26.5999325 0.900001182,25.5999351 C-0.400000525,23.8999394 0.100000131,22.099944 0.600000788,20.3999483 L0.700000919,20.1999488 C0.700000919,20.099949 0.800001051,19.8999495 0.800001051,19.7999498 C1.6000021,17.5999554 2.80000368,15.1999615 4.30000565,12.599968 C8.20001077,6.29998402 15.5000204,4.54747351e-13 24.400032,0.699998225 C40.2000528,1.99999493 46.6000612,18.7999523 45.9000603,33.9999138 C46.1000605,36.1999082 44.3000582,37.7999041 42.2000554,37.7999041 Z"></path>
                        </g>
                    </g>
                </g>
            </g>
        </g>
    </g>
</svg>